ISO-10303-21;
HEADER;
FILE_DESCRIPTION (( 'STEP AP203' ),
    '1' );
FILE_NAME ('7291N12_Wet-Environment Sealing Grommet.STEP',
    '2026-01-06T15:35:51',
    ( 'McMaster Carr Supply' ),
    ( 'McMaster Carr Supply' ),
    'SwSTEP 2.0',
    'SolidWorks 2024',
    '' );
FILE_SCHEMA (( 'CONFIG_CONTROL_DESIGN' ));
ENDSEC;

DATA;
#1 = AXIS2_PLACEMENT_3D ( 'NONE', #597, #871, #593 ) ;
#2 = CARTESIAN_POINT ( 'NONE',  ( -9.500000000000000000, -0.5000000000000038858, 0.000000000000000000 ) ) ;
#3 = CIRCLE ( 'NONE', #367, 2.717947212491627074 ) ;
#4 = CARTESIAN_POINT ( 'NONE',  ( -2.010012963072822724E-16, 7.499999999999996447, 0.000000000000000000 ) ) ;
#5 = DIRECTION ( 'NONE',  ( 1.267059173938971046E-33, -1.000000000000000000, -0.000000000000000000 ) ) ;
#6 = DIRECTION ( 'NONE',  ( 1.267059173938971046E-33, -1.000000000000000000, -0.000000000000000000 ) ) ;
#7 = CARTESIAN_POINT ( 'NONE',  ( 3.167647934847408371E-34, -9.500000000000003553, 0.000000000000000000 ) ) ;
#8 = EDGE_CURVE ( 'NONE', #248, #659, #703, .T. ) ;
#9 = DIRECTION ( 'NONE',  ( -1.000000000000000000, 0.000000000000000000, 0.000000000000000000 ) ) ;
#10 = LOCAL_TIME ( 9, 35, 51.00000000000000000, #247 ) ;
#11 = VECTOR ( 'NONE', #87, 1000.000000000000000 ) ;
#12 = DIRECTION ( 'NONE',  ( -1.224646799147353207E-16, -1.551699961694650428E-49, 1.000000000000000000 ) ) ;
#13 = ORIENTED_EDGE ( 'NONE', *, *, #836, .F. ) ;
#14 = FACE_OUTER_BOUND ( 'NONE', #386, .T. ) ;
#15 = VECTOR ( 'NONE', #620, 1000.000000000000000 ) ;
#16 = CONICAL_SURFACE ( 'NONE', #881, 6.500000000000000000, 0.5766737180691438036 ) ;
#17 = ORIENTED_EDGE ( 'NONE', *, *, #436, .F. ) ;
#18 = CIRCLE ( 'NONE', #554, 10.00000000000000000 ) ;
#19 = FACE_OUTER_BOUND ( 'NONE', #101, .T. ) ;
#20 = ORIENTED_EDGE ( 'NONE', *, *, #107, .F. ) ;
#21 = CARTESIAN_POINT ( 'NONE',  ( -3.169499999999995321, 8.549999999999998934, 5.920861112177663870E-16 ) ) ;
#22 = DIRECTION ( 'NONE',  ( -1.000000000000000000, 0.000000000000000000, 0.000000000000000000 ) ) ;
#23 = VECTOR ( 'NONE', #713, 1000.000000000000000 ) ;
#24 = ORIENTED_EDGE ( 'NONE', *, *, #691, .F. ) ;
#25 = APPROVAL ( #604, 'UNSPECIFIED' ) ;
#26 = PERSON_AND_ORGANIZATION ( #895, #54 ) ;
#27 = DIRECTION ( 'NONE',  ( 1.000000000000000000, 0.000000000000000000, 0.000000000000000000 ) ) ;
#28 = ORIENTED_EDGE ( 'NONE', *, *, #96, .T. ) ;
#29 = ORIENTED_EDGE ( 'NONE', *, *, #831, .T. ) ;
#30 = CONICAL_SURFACE ( 'NONE', #438, 3.169499999999995321, 1.126689722565650031 ) ;
#31 = APPLICATION_CONTEXT ( 'configuration controlled 3d designs of mechanical parts and assemblies' ) ;
#32 = DIRECTION ( 'NONE',  ( -1.000000000000000000, 0.000000000000000000, 0.000000000000000000 ) ) ;
#33 = ADVANCED_FACE ( 'NONE', ( #851 ), #212, .T. ) ;
#34 = AXIS2_PLACEMENT_3D ( 'NONE', #128, #722, #207 ) ;
#35 = DIRECTION ( 'NONE',  ( 0.000000000000000000, 0.000000000000000000, -1.000000000000000000 ) ) ;
#36 = ORIENTED_EDGE ( 'NONE', *, *, #633, .T. ) ;
#37 = DATE_TIME_ROLE ( 'creation_date' ) ;
#38 = ADVANCED_FACE ( 'NONE', ( #374 ), #63, .T. ) ;
#39 = DIRECTION ( 'NONE',  ( -1.000000000000000000, 0.000000000000000000, 0.000000000000000000 ) ) ;
#40 = EDGE_LOOP ( 'NONE', ( #462, #909, #269, #485 ) ) ;
#41 = CARTESIAN_POINT ( 'NONE',  ( -10.00000000000000000, 2.099999999999994316, 1.224646799147353256E-15 ) ) ;
#42 = ORIENTED_EDGE ( 'NONE', *, *, #506, .F. ) ;
#43 = PLANE ( 'NONE',  #276 ) ;
#44 = ORIENTED_EDGE ( 'NONE', *, *, #376, .T. ) ;
#45 = TOROIDAL_SURFACE ( 'NONE', #911, 9.900000000000000355, 0.1000000000000000056 ) ;
#46 = VECTOR ( 'NONE', #925, 1000.000000000000000 ) ;
#47 = CARTESIAN_POINT ( 'NONE',  ( -5.834059438752476012, -9.500000000000005329, 7.144662217703623749E-16 ) ) ;
#48 = AXIS2_PLACEMENT_3D ( 'NONE', #214, #441, #499 ) ;
#49 = CARTESIAN_POINT ( 'NONE',  ( -4.066911586224360775, -9.009120694893251624, 5.121175340548626701E-16 ) ) ;
#50 = VERTEX_POINT ( 'NONE', #571 ) ;
#51 = EDGE_CURVE ( 'NONE', #167, #284, #351, .T. ) ;
#52 = DIRECTION ( 'NONE',  ( 0.000000000000000000, 0.000000000000000000, 1.000000000000000000 ) ) ;
#53 = EDGE_LOOP ( 'NONE', ( #567, #173 ) ) ;
#54 = ORGANIZATION ( 'UNSPECIFIED', 'UNSPECIFIED', '' ) ;
#55 = DIRECTION ( 'NONE',  ( 1.267059173938971046E-33, -1.000000000000000000, -0.000000000000000000 ) ) ;
#56 = PLANE ( 'NONE',  #360 ) ;
#57 = ORIENTED_EDGE ( 'NONE', *, *, #382, .F. ) ;
#58 = CARTESIAN_POINT ( 'NONE',  ( 3.577249852633265892, 9.305989748765368219, 0.000000000000000000 ) ) ;
#59 = AXIS2_PLACEMENT_3D ( 'NONE', #524, #105, #165 ) ;
#60 = CARTESIAN_POINT ( 'NONE',  ( 3.741295971395164614E-15, 8.549999999999998934, 0.000000000000000000 ) ) ;
#61 = AXIS2_PLACEMENT_3D ( 'NONE', #487, #629, #135 ) ;
#62 = ORIENTED_EDGE ( 'NONE', *, *, #266, .T. ) ;
#63 = CYLINDRICAL_SURFACE ( 'NONE', #779, 10.00000000000000000 ) ;
#64 = CARTESIAN_POINT ( 'NONE',  ( -9.500000000000000000, 0.9999999999999940048, 1.163414459189985485E-15 ) ) ;
#65 = EDGE_CURVE ( 'NONE', #829, #222, #624, .T. ) ;
#66 = CARTESIAN_POINT ( 'NONE',  ( -2.010012963072822724E-16, 9.499999999999996447, 0.000000000000000000 ) ) ;
#67 = EDGE_LOOP ( 'NONE', ( #525, #469 ) ) ;
#68 = ORIENTED_EDGE ( 'NONE', *, *, #158, .T. ) ;
#69 = AXIS2_PLACEMENT_3D ( 'NONE', #642, #573, #83 ) ;
#70 = FACE_OUTER_BOUND ( 'NONE', #791, .T. ) ;
#71 = CARTESIAN_POINT ( 'NONE',  ( 8.000000000000000000, 1.999999999999994893, 0.000000000000000000 ) ) ;
#72 = ADVANCED_FACE ( 'NONE', ( #354 ), #318, .T. ) ;
#73 = ORIENTED_EDGE ( 'NONE', *, *, #371, .T. ) ;
#74 = CARTESIAN_POINT ( 'NONE',  ( 4.066911586224360775, -9.009120694893251624, 0.000000000000000000 ) ) ;
#75 = AXIS2_PLACEMENT_3D ( 'NONE', #401, #193, #398 ) ;
#76 = DIRECTION ( 'NONE',  ( 1.000000000000000000, 0.000000000000000000, 0.000000000000000000 ) ) ;
#77 = ORIENTED_EDGE ( 'NONE', *, *, #663, .F. ) ;
#78 = EDGE_CURVE ( 'NONE', #706, #612, #18, .T. ) ;
#79 = SECURITY_CLASSIFICATION_LEVEL ( 'unclassified' ) ;
#80 = DIRECTION ( 'NONE',  ( -1.000000000000000000, 0.000000000000000000, 0.000000000000000000 ) ) ;
#81 = CARTESIAN_POINT ( 'NONE',  ( -2.010012963072822477E-16, -0.5000000000000038858, 0.000000000000000000 ) ) ;
#82 = DIRECTION ( 'NONE',  ( 1.267059173938971046E-33, -1.000000000000000000, -0.000000000000000000 ) ) ;
#83 = DIRECTION ( 'NONE',  ( -1.000000000000000000, 0.000000000000000000, 0.000000000000000000 ) ) ;
#84 = CARTESIAN_POINT ( 'NONE',  ( 0.000000000000000000, -9.500000000000005329, 0.000000000000000000 ) ) ;
#85 = AXIS2_PLACEMENT_3D ( 'NONE', #621, #689, #681 ) ;
#86 = ORIENTED_EDGE ( 'NONE', *, *, #451, .F. ) ;
#87 = DIRECTION ( 'NONE',  ( -1.267059173938971046E-33, 1.000000000000000000, -0.000000000000000000 ) ) ;
#88 = EDGE_CURVE ( 'NONE', #808, #343, #673, .T. ) ;
#89 = DIRECTION ( 'NONE',  ( 1.267059173938971046E-33, -1.000000000000000000, -0.000000000000000000 ) ) ;
#90 = CIRCLE ( 'NONE', #761, 3.169499999999995321 ) ;
#91 = AXIS2_PLACEMENT_3D ( 'NONE', #131, #361, #787 ) ;
#92 = ORIENTED_EDGE ( 'NONE', *, *, #613, .F. ) ;
#93 = AXIS2_PLACEMENT_3D ( 'NONE', #81, #6, #631 ) ;
#94 = DIRECTION ( 'NONE',  ( 1.267059173938971046E-33, -1.000000000000000000, -0.000000000000000000 ) ) ;
#95 = CARTESIAN_POINT ( 'NONE',  ( -2.010012963072822724E-16, 2.099999999999994316, 0.000000000000000000 ) ) ;
#96 = EDGE_CURVE ( 'NONE', #808, #850, #639, .T. ) ;
#97 = ORIENTED_EDGE ( 'NONE', *, *, #663, .T. ) ;
#98 = DIRECTION ( 'NONE',  ( 1.000000000000000000, 0.000000000000000000, 0.000000000000000000 ) ) ;
#99 = EDGE_LOOP ( 'NONE', ( #712, #261, #29, #445 ) ) ;
#100 = DIRECTION ( 'NONE',  ( -1.000000000000000000, 0.000000000000000000, 0.000000000000000000 ) ) ;
#101 = EDGE_LOOP ( 'NONE', ( #24, #729, #73, #479 ) ) ;
#102 = CIRCLE ( 'NONE', #255, 0.2499999999999993616 ) ;
#103 = EDGE_CURVE ( 'NONE', #730, #50, #869, .T. ) ;
#104 = DATE_AND_TIME ( #315, #843 ) ;
#105 = DIRECTION ( 'NONE',  ( -1.267059173938971046E-33, 1.000000000000000000, -0.000000000000000000 ) ) ;
#106 = EDGE_LOOP ( 'NONE', ( #589, #619, #600, #675 ) ) ;
#107 = EDGE_CURVE ( 'NONE', #659, #248, #583, .T. ) ;
#108 = DIRECTION ( 'NONE',  ( 1.000000000000000000, 0.000000000000000000, 0.000000000000000000 ) ) ;
#109 = DIRECTION ( 'NONE',  ( 1.267059173938971046E-33, -1.000000000000000000, -0.000000000000000000 ) ) ;
#110 = ORIENTED_EDGE ( 'NONE', *, *, #262, .T. ) ;
#111 = LINE ( 'NONE', #546, #538 ) ;
#112 = EDGE_CURVE ( 'NONE', #122, #690, #303, .T. ) ;
#113 = DIRECTION ( 'NONE',  ( -1.000000000000000000, -1.267059173938971046E-33, 0.000000000000000000 ) ) ;
#114 = ORIENTED_EDGE ( 'NONE', *, *, #476, .F. ) ;
#115 = CIRCLE ( 'NONE', #286, 6.500000000000000000 ) ;
#116 = AXIS2_PLACEMENT_3D ( 'NONE', #764, #55, #614 ) ;
#117 = DIRECTION ( 'NONE',  ( 1.267059173938971046E-33, -1.000000000000000000, -0.000000000000000000 ) ) ;
#118 = CARTESIAN_POINT ( 'NONE',  ( -9.500000000000000000, 0.9999999999999943379, 0.000000000000000000 ) ) ;
#119 = ORIENTED_EDGE ( 'NONE', *, *, #602, .F. ) ;
#120 = DIRECTION ( 'NONE',  ( -1.267059173938971046E-33, 1.000000000000000000, 0.000000000000000000 ) ) ;
#121 = CARTESIAN_POINT ( 'NONE',  ( -2.010012963072822724E-16, 9.499999999999998224, 0.000000000000000000 ) ) ;
#122 = VERTEX_POINT ( 'NONE', #414 ) ;
#123 = VERTEX_POINT ( 'NONE', #268 ) ;
#124 = AXIS2_PLACEMENT_3D ( 'NONE', #796, #670, #32 ) ;
#125 = DIRECTION ( 'NONE',  ( -1.267059173938971046E-33, 1.000000000000000000, -0.000000000000000000 ) ) ;
#126 = DIRECTION ( 'NONE',  ( -1.000000000000000000, 0.000000000000000000, 0.000000000000000000 ) ) ;
#127 = VERTEX_POINT ( 'NONE', #49 ) ;
#128 = CARTESIAN_POINT ( 'NONE',  ( -2.010012963072822477E-16, -2.361281839947382277, 0.000000000000000000 ) ) ;
#129 = ADVANCED_FACE ( 'NONE', ( #694 ), #337, .F. ) ;
#130 = CIRCLE ( 'NONE', #404, 2.000000000000000000 ) ;
#131 = CARTESIAN_POINT ( 'NONE',  ( 0.000000000000000000, -9.250000000000005329, 0.000000000000000000 ) ) ;
#132 = AXIS2_PLACEMENT_3D ( 'NONE', #768, #910, #898 ) ;
#133 = DIRECTION ( 'NONE',  ( 1.000000000000000000, 0.000000000000000000, 1.224646799147353947E-16 ) ) ;
#134 = ORIENTED_EDGE ( 'NONE', *, *, #857, .T. ) ;
#135 = DIRECTION ( 'NONE',  ( -1.000000000000000000, 0.000000000000000000, 0.000000000000000000 ) ) ;
#136 = CARTESIAN_POINT ( 'NONE',  ( -8.000000000000000000, -9.500000000000001776, 9.797174393178825657E-16 ) ) ;
#137 = ADVANCED_FACE ( 'NONE', ( #264 ), #280, .F. ) ;
#138 = VECTOR ( 'NONE', #770, 1000.000000000000227 ) ;
#139 = DIRECTION ( 'NONE',  ( 1.000000000000000000, 0.000000000000000000, 0.000000000000000000 ) ) ;
#140 = CIRCLE ( 'NONE', #664, 8.000000000000000000 ) ;
#141 = FACE_OUTER_BOUND ( 'NONE', #348, .T. ) ;
#142 = CARTESIAN_POINT ( 'NONE',  ( -2.010012963072822724E-16, 0.9999999999999940048, 0.000000000000000000 ) ) ;
#143 = ADVANCED_FACE ( 'NONE', ( #341, #912 ), #56, .F. ) ;
#144 = CARTESIAN_POINT ( 'NONE',  ( -2.010012963072822477E-16, -9.500000000000001776, 0.000000000000000000 ) ) ;
#145 = CYLINDRICAL_SURFACE ( 'NONE', #575, 3.000000000000002665 ) ;
#146 = CIRCLE ( 'NONE', #867, 8.000000000000000000 ) ;
#147 = CARTESIAN_POINT ( 'NONE',  ( -2.010012963072822724E-16, 9.499999999999998224, 0.000000000000000000 ) ) ;
#148 = AXIS2_PLACEMENT_3D ( 'NONE', #4, #82, #855 ) ;
#149 = EDGE_LOOP ( 'NONE', ( #540, #327, #304, #177 ) ) ;
#150 = CARTESIAN_POINT ( 'NONE',  ( -4.000000000000000000, -9.250000000000005329, 4.898587196589412829E-16 ) ) ;
#151 = CARTESIAN_POINT ( 'NONE',  ( -2.010012963072822724E-16, 7.499999999999996447, 0.000000000000000000 ) ) ;
#152 = ORIENTED_EDGE ( 'NONE', *, *, #257, .T. ) ;
#153 = PRODUCT_DEFINITION_SHAPE ( 'NONE', 'NONE',  #795 ) ;
#154 = CARTESIAN_POINT ( 'NONE',  ( 9.942965132007079987, 6.277137591827385066, 0.000000000000000000 ) ) ;
#155 = CC_DESIGN_APPROVAL ( #25, ( #431 ) ) ;
#156 = EDGE_LOOP ( 'NONE', ( #338, #923, #802, #772 ) ) ;
#157 = ORIENTED_EDGE ( 'NONE', *, *, #697, .T. ) ;
#158 = EDGE_CURVE ( 'NONE', #122, #383, #548, .T. ) ;
#159 = PERSON_AND_ORGANIZATION_ROLE ( 'creator' ) ;
#160 = DIRECTION ( 'NONE',  ( -1.000000000000000000, -1.267059173938971046E-33, 0.000000000000000000 ) ) ;
#161 = AXIS2_PLACEMENT_3D ( 'NONE', #84, #430, #577 ) ;
#162 = AXIS2_PLACEMENT_3D ( 'NONE', #287, #372, #224 ) ;
#163 = EDGE_LOOP ( 'NONE', ( #157, #68, #482, #465 ) ) ;
#164 =( LENGTH_UNIT ( ) NAMED_UNIT ( * ) SI_UNIT ( .MILLI., .METRE. ) );
#165 = DIRECTION ( 'NONE',  ( -1.000000000000000000, 0.000000000000000000, 0.000000000000000000 ) ) ;
#166 = PERSON_AND_ORGANIZATION_ROLE ( 'design_supplier' ) ;
#167 = VERTEX_POINT ( 'NONE', #399 ) ;
#168 = LINE ( 'NONE', #601, #648 ) ;
#169 = DIRECTION ( 'NONE',  ( 0.000000000000000000, 0.000000000000000000, 1.000000000000000000 ) ) ;
#170 = LOCAL_TIME ( 9, 35, 51.00000000000000000, #223 ) ;
#171 = APPROVAL_PERSON_ORGANIZATION ( #877, #572, #235 ) ;
#172 = EDGE_CURVE ( 'NONE', #334, #549, #785, .T. ) ;
#173 = ORIENTED_EDGE ( 'NONE', *, *, #403, .T. ) ;
#174 = CARTESIAN_POINT ( 'NONE',  ( 0.000000000000000000, 0.000000000000000000, 0.000000000000000000 ) ) ;
#175 = CARTESIAN_POINT ( 'NONE',  ( -2.010012963072822724E-16, 9.499999999999994671, 0.000000000000000000 ) ) ;
#176 = AXIS2_PLACEMENT_3D ( 'NONE', #878, #240, #388 ) ;
#177 = ORIENTED_EDGE ( 'NONE', *, *, #817, .F. ) ;
#178 = AXIS2_PLACEMENT_3D ( 'NONE', #907, #117, #253 ) ;
#179 = AXIS2_PLACEMENT_3D ( 'NONE', #7, #717, #707 ) ;
#180 = CARTESIAN_POINT ( 'NONE',  ( 6.500000000000000888, 6.965324646804771369, 0.000000000000000000 ) ) ;
#181 = VERTEX_POINT ( 'NONE', #827 ) ;
#182 = ADVANCED_FACE ( 'NONE', ( #273, #277 ), #915, .F. ) ;
#183 = CARTESIAN_POINT ( 'NONE',  ( -2.010012963072822724E-16, 6.186838104389115855, 0.000000000000000000 ) ) ;
#184 = DIRECTION ( 'NONE',  ( -1.267059173938971046E-33, 1.000000000000000000, -0.000000000000000000 ) ) ;
#185 = AXIS2_PLACEMENT_3D ( 'NONE', #220, #355, #569 ) ;
#186 = ORIENTED_EDGE ( 'NONE', *, *, #339, .F. ) ;
#187 = CC_DESIGN_PERSON_AND_ORGANIZATION_ASSIGNMENT ( #295, #888, ( #889 ) ) ;
#188 = DIRECTION ( 'NONE',  ( 1.267059173938971046E-33, -1.000000000000000000, -0.000000000000000000 ) ) ;
#189 = CC_DESIGN_PERSON_AND_ORGANIZATION_ASSIGNMENT ( #539, #166, ( #889 ) ) ;
#190 = DIRECTION ( 'NONE',  ( -1.267059173938971046E-33, 1.000000000000000000, 0.000000000000000000 ) ) ;
#191 = ORIENTED_EDGE ( 'NONE', *, *, #466, .T. ) ;
#192 = AXIS2_PLACEMENT_3D ( 'NONE', #733, #316, #395 ) ;
#193 = DIRECTION ( 'NONE',  ( 1.267059173938971046E-33, -1.000000000000000000, -0.000000000000000000 ) ) ;
#194 = CARTESIAN_POINT ( 'NONE',  ( -2.010012963072822477E-16, -7.742381337702813227, 0.000000000000000000 ) ) ;
#195 = EDGE_CURVE ( 'NONE', #850, #839, #678, .T. ) ;
#196 = EDGE_LOOP ( 'NONE', ( #186, #565 ) ) ;
#197 = CARTESIAN_POINT ( 'NONE',  ( 3.169499999999995321, 8.549999999999998934, 0.000000000000000000 ) ) ;
#198 = AXIS2_PLACEMENT_3D ( 'NONE', #194, #841, #126 ) ;
#199 = DIRECTION ( 'NONE',  ( 1.000000000000000000, 1.267059173938971046E-33, 0.000000000000000000 ) ) ;
#200 = VERTEX_POINT ( 'NONE', #833 ) ;
#201 = ADVANCED_FACE ( 'NONE', ( #468 ), #323, .F. ) ;
#202 = APPROVAL_PERSON_ORGANIZATION ( #251, #25, #530 ) ;
#203 = DIRECTION ( 'NONE',  ( 1.267059173938971046E-33, -1.000000000000000000, -0.000000000000000000 ) ) ;
#204 = DIRECTION ( 'NONE',  ( -1.000000000000000000, 0.000000000000000000, 0.000000000000000000 ) ) ;
#205 = DIRECTION ( 'NONE',  ( 1.267059173938971046E-33, -1.000000000000000000, -0.000000000000000000 ) ) ;
#206 = VERTEX_POINT ( 'NONE', #899 ) ;
#207 = DIRECTION ( 'NONE',  ( -1.000000000000000000, 0.000000000000000000, 0.000000000000000000 ) ) ;
#208 = AXIS2_PLACEMENT_3D ( 'NONE', #377, #864, #710 ) ;
#209 = LINE ( 'NONE', #439, #46 ) ;
#210 = CIRCLE ( 'NONE', #732, 3.000000000000002665 ) ;
#211 = DIRECTION ( 'NONE',  ( 1.000000000000000000, 0.000000000000000000, 0.000000000000000000 ) ) ;
#212 = TOROIDAL_SURFACE ( 'NONE', #148, 2.717947212491627074, 2.000000000000000000 ) ;
#213 = VERTEX_POINT ( 'NONE', #845 ) ;
#214 = CARTESIAN_POINT ( 'NONE',  ( -2.010012963072822724E-16, 1.999999999999994893, 0.000000000000000000 ) ) ;
#215 = CC_DESIGN_DATE_AND_TIME_ASSIGNMENT ( #104, #37, ( #795 ) ) ;
#216 = CARTESIAN_POINT ( 'NONE',  ( -2.010012963072822477E-16, -9.500000000000005329, 0.000000000000000000 ) ) ;
#217 = DIRECTION ( 'NONE',  ( 1.000000000000000000, 0.000000000000000000, 0.000000000000000000 ) ) ;
#218 = CARTESIAN_POINT ( 'NONE',  ( -3.000000000000002665, 9.499999999999998224, 0.000000000000000000 ) ) ;
#219 = AXIS2_PLACEMENT_3D ( 'NONE', #174, #660, #98 ) ;
#220 = CARTESIAN_POINT ( 'NONE',  ( -2.010012963072822477E-16, -2.361281839947382277, 0.000000000000000000 ) ) ;
#221 = CARTESIAN_POINT ( 'NONE',  ( -6.500000000000000888, 9.499999999999998224, 0.000000000000000000 ) ) ;
#222 = VERTEX_POINT ( 'NONE', #551 ) ;
#223 = COORDINATED_UNIVERSAL_TIME_OFFSET ( 6, 0, .BEHIND. ) ;
#224 = DIRECTION ( 'NONE',  ( -1.000000000000000000, 0.000000000000000000, 0.000000000000000000 ) ) ;
#225 = CIRCLE ( 'NONE', #758, 2.717947212491627074 ) ;
#226 = CIRCLE ( 'NONE', #716, 9.900000000000000355 ) ;
#227 = DIRECTION ( 'NONE',  ( 0.9029948743826858859, -0.4296513200708187985, 0.000000000000000000 ) ) ;
#228 = EDGE_CURVE ( 'NONE', #868, #334, #685, .T. ) ;
#229 = AXIS2_PLACEMENT_3D ( 'NONE', #433, #649, #364 ) ;
#230 = ORIENTED_EDGE ( 'NONE', *, *, #262, .F. ) ;
#231 = CYLINDRICAL_SURFACE ( 'NONE', #591, 8.000000000000000000 ) ;
#232 = CARTESIAN_POINT ( 'NONE',  ( -2.010012963072822724E-16, 8.549999999999998934, 0.000000000000000000 ) ) ;
#233 = EDGE_LOOP ( 'NONE', ( #531, #739, #900, #86 ) ) ;
#234 = ADVANCED_FACE ( 'NONE', ( #419, #908 ), #43, .F. ) ;
#235 = APPROVAL_ROLE ( '' ) ;
#236 = CARTESIAN_POINT ( 'NONE',  ( 4.000000000000000000, -9.250000000000005329, 0.000000000000000000 ) ) ;
#237 = VERTEX_POINT ( 'NONE', #700 ) ;
#238 = CALENDAR_DATE ( 2026, 6, 1 ) ;
#239 = ADVANCED_FACE ( 'NONE', ( #611 ), #473, .F. ) ;
#240 = DIRECTION ( 'NONE',  ( 1.267059173938971046E-33, -1.000000000000000000, -0.000000000000000000 ) ) ;
#241 = AXIS2_PLACEMENT_3D ( 'NONE', #175, #801, #312 ) ;
#242 = AXIS2_PLACEMENT_3D ( 'NONE', #47, #826, #483 ) ;
#243 = VERTEX_POINT ( 'NONE', #477 ) ;
#244 = CARTESIAN_POINT ( 'NONE',  ( 9.899999999999998579, 6.186838104389115855, 1.212400331155879505E-15 ) ) ;
#245 = APPROVAL ( #324, 'UNSPECIFIED' ) ;
#246 = CARTESIAN_POINT ( 'NONE',  ( -2.717947212491627074, 7.499999999999996447, 3.328525354029342372E-16 ) ) ;
#247 = COORDINATED_UNIVERSAL_TIME_OFFSET ( 6, 0, .BEHIND. ) ;
#248 = VERTEX_POINT ( 'NONE', #402 ) ;
#249 = LINE ( 'NONE', #319, #11 ) ;
#250 = DIRECTION ( 'NONE',  ( -1.000000000000000000, 0.000000000000000000, 0.000000000000000000 ) ) ;
#251 = PERSON_AND_ORGANIZATION ( #895, #54 ) ;
#252 = EDGE_LOOP ( 'NONE', ( #498, #581, #279, #599 ) ) ;
#253 = DIRECTION ( 'NONE',  ( 1.000000000000000000, 0.000000000000000000, 0.000000000000000000 ) ) ;
#254 = CALENDAR_DATE ( 2026, 6, 1 ) ;
#255 = AXIS2_PLACEMENT_3D ( 'NONE', #236, #35, #677 ) ;
#256 = ORIENTED_EDGE ( 'NONE', *, *, #88, .F. ) ;
#257 = EDGE_CURVE ( 'NONE', #653, #181, #863, .T. ) ;
#258 = TOROIDAL_SURFACE ( 'NONE', #641, 9.899999999999998579, 0.1000000000000000056 ) ;
#259 = FACE_OUTER_BOUND ( 'NONE', #233, .T. ) ;
#260 = DIRECTION ( 'NONE',  ( 1.267059173938971046E-33, -1.000000000000000000, -0.000000000000000000 ) ) ;
#261 = ORIENTED_EDGE ( 'NONE', *, *, #382, .T. ) ;
#262 = EDGE_CURVE ( 'NONE', #829, #334, #301, .T. ) ;
#263 = LINE ( 'NONE', #832, #776 ) ;
#264 = FACE_OUTER_BOUND ( 'NONE', #682, .T. ) ;
#265 = EDGE_LOOP ( 'NONE', ( #313, #256, #28, #458 ) ) ;
#266 = EDGE_CURVE ( 'NONE', #237, #213, #225, .T. ) ;
#267 = CYLINDRICAL_SURFACE ( 'NONE', #132, 8.000000000000000000 ) ;
#268 = CARTESIAN_POINT ( 'NONE',  ( 9.500000000000000000, 0.9999999999999940048, 0.000000000000000000 ) ) ;
#269 = ORIENTED_EDGE ( 'NONE', *, *, #363, .T. ) ;
#270 = VECTOR ( 'NONE', #714, 1000.000000000000000 ) ;
#271 = DIRECTION ( 'NONE',  ( -1.000000000000000000, 0.000000000000000000, 0.000000000000000000 ) ) ;
#272 = ADVANCED_FACE ( 'NONE', ( #14 ), #715, .T. ) ;
#273 = FACE_BOUND ( 'NONE', #67, .T. ) ;
#274 = ORIENTED_EDGE ( 'NONE', *, *, #112, .F. ) ;
#275 = LINE ( 'NONE', #558, #342 ) ;
#276 = AXIS2_PLACEMENT_3D ( 'NONE', #751, #190, #331 ) ;
#277 = FACE_OUTER_BOUND ( 'NONE', #535, .T. ) ;
#278 = ORIENTED_EDGE ( 'NONE', *, *, #308, .F. ) ;
#279 = ORIENTED_EDGE ( 'NONE', *, *, #302, .T. ) ;
#280 = TOROIDAL_SURFACE ( 'NONE', #755, 5.834059438752476012, 1.834059438752476456 ) ;
#281 = LINE ( 'NONE', #780, #830 ) ;
#282 = LINE ( 'NONE', #848, #270 ) ;
#283 = ORIENTED_EDGE ( 'NONE', *, *, #806, .F. ) ;
#284 = VERTEX_POINT ( 'NONE', #71 ) ;
#285 = EDGE_CURVE ( 'NONE', #243, #503, #696, .T. ) ;
#286 = AXIS2_PLACEMENT_3D ( 'NONE', #306, #588, #39 ) ;
#287 = CARTESIAN_POINT ( 'NONE',  ( -2.010012963072822724E-16, 1.999999999999994449, 0.000000000000000000 ) ) ;
#288 = DIRECTION ( 'NONE',  ( -0.5452385996171413840, 0.8382809013019076883, 0.000000000000000000 ) ) ;
#289 = VECTOR ( 'NONE', #227, 1000.000000000000114 ) ;
#290 = VERTEX_POINT ( 'NONE', #444 ) ;
#291 = LINE ( 'NONE', #704, #23 ) ;
#292 = ORIENTED_EDGE ( 'NONE', *, *, #107, .T. ) ;
#293 = DIRECTION ( 'NONE',  ( -1.267059173938971046E-33, 1.000000000000000000, 0.000000000000000000 ) ) ;
#294 = CARTESIAN_POINT ( 'NONE',  ( -2.010012963072822724E-16, 9.305989748765368219, 0.000000000000000000 ) ) ;
#295 = PERSON_AND_ORGANIZATION ( #895, #54 ) ;
#296 = CIRCLE ( 'NONE', #813, 10.00000000000000000 ) ;
#297 = CARTESIAN_POINT ( 'NONE',  ( -10.00000000000000000, 6.186838104389115855, 1.224646799147353256E-15 ) ) ;
#298 = FACE_OUTER_BOUND ( 'NONE', #353, .T. ) ;
#299 = ORIENTED_EDGE ( 'NONE', *, *, #345, .T. ) ;
#300 = AXIS2_PLACEMENT_3D ( 'NONE', #536, #692, #52 ) ;
#301 = LINE ( 'NONE', #221, #866 ) ;
#302 = EDGE_CURVE ( 'NONE', #690, #894, #362, .T. ) ;
#303 = CIRCLE ( 'NONE', #821, 3.577249852633265892 ) ;
#304 = ORIENTED_EDGE ( 'NONE', *, *, #436, .T. ) ;
#305 = PERSON_AND_ORGANIZATION ( #895, #54 ) ;
#306 = CARTESIAN_POINT ( 'NONE',  ( -2.010012963072822477E-16, -2.361281839947382277, 0.000000000000000000 ) ) ;
#307 = ORIENTED_EDGE ( 'NONE', *, *, #893, .F. ) ;
#308 = EDGE_CURVE ( 'NONE', #612, #181, #282, .T. ) ;
#309 = MANIFOLD_SOLID_BREP ( 'Fillet3', #454 ) ;
#310 = DIRECTION ( 'NONE',  ( 0.5452385996171413840, 0.8382809013019076883, 6.677247057927175201E-17 ) ) ;
#311 = CIRCLE ( 'NONE', #769, 0.2499999999999993616 ) ;
#312 = DIRECTION ( 'NONE',  ( 1.000000000000000000, 0.000000000000000000, 0.000000000000000000 ) ) ;
#313 = ORIENTED_EDGE ( 'NONE', *, *, #545, .F. ) ;
#314 = EDGE_CURVE ( 'NONE', #628, #200, #146, .T. ) ;
#315 = CALENDAR_DATE ( 2026, 6, 1 ) ;
#316 = DIRECTION ( 'NONE',  ( 1.267059173938971046E-33, -1.000000000000000000, -0.000000000000000000 ) ) ;
#317 = ORIENTED_EDGE ( 'NONE', *, *, #195, .F. ) ;
#318 = CONICAL_SURFACE ( 'NONE', #838, 3.169499999999998874, 1.126689722565649587 ) ;
#319 = CARTESIAN_POINT ( 'NONE',  ( 6.500000000000000888, 9.499999999999998224, 7.960204194457796463E-16 ) ) ;
#320 = DIRECTION ( 'NONE',  ( 1.224646799147353207E-16, 1.551699961694650428E-49, 1.000000000000000000 ) ) ;
#321 = SHAPE_DEFINITION_REPRESENTATION ( #153, #472 ) ;
#322 = ORIENTED_EDGE ( 'NONE', *, *, #466, .F. ) ;
#323 = CONICAL_SURFACE ( 'NONE', #828, 3.169499999999995321, 1.126689722565650031 ) ;
#324 = APPROVAL_STATUS ( 'not_yet_approved' ) ;
#325 = DIRECTION ( 'NONE',  ( -1.267059173938971046E-33, 1.000000000000000000, -0.000000000000000000 ) ) ;
#326 = CC_DESIGN_APPROVAL ( #245, ( #889 ) ) ;
#327 = ORIENTED_EDGE ( 'NONE', *, *, #887, .T. ) ;
#328 = AXIS2_PLACEMENT_3D ( 'NONE', #903, #765, #555 ) ;
#329 = ORIENTED_EDGE ( 'NONE', *, *, #852, .T. ) ;
#330 = CARTESIAN_POINT ( 'NONE',  ( -2.010012963072822477E-16, -9.500000000000001776, 0.000000000000000000 ) ) ;
#331 = DIRECTION ( 'NONE',  ( -1.000000000000000000, -1.267059173938971046E-33, 0.000000000000000000 ) ) ;
#332 = ADVANCED_FACE ( 'NONE', ( #505 ), #725, .F. ) ;
#333 = AXIS2_PLACEMENT_3D ( 'NONE', #497, #854, #784 ) ;
#334 = VERTEX_POINT ( 'NONE', #781 ) ;
#335 = CIRCLE ( 'NONE', #178, 9.500000000000000000 ) ;
#336 = DIRECTION ( 'NONE',  ( -0.000000000000000000, 0.000000000000000000, -1.000000000000000000 ) ) ;
#337 = CYLINDRICAL_SURFACE ( 'NONE', #344, 6.500000000000000888 ) ;
#338 = ORIENTED_EDGE ( 'NONE', *, *, #339, .T. ) ;
#339 = EDGE_CURVE ( 'NONE', #284, #167, #379, .T. ) ;
#340 = CARTESIAN_POINT ( 'NONE',  ( -2.010012963072822477E-16, -2.361281839947382277, 0.000000000000000000 ) ) ;
#341 = FACE_OUTER_BOUND ( 'NONE', #526, .T. ) ;
#342 = VECTOR ( 'NONE', #489, 1000.000000000000000 ) ;
#343 = VERTEX_POINT ( 'NONE', #490 ) ;
#344 = AXIS2_PLACEMENT_3D ( 'NONE', #121, #184, #756 ) ;
#345 = EDGE_CURVE ( 'NONE', #206, #181, #671, .T. ) ;
#346 = CYLINDRICAL_SURFACE ( 'NONE', #655, 9.500000000000000000 ) ;
#347 = CARTESIAN_POINT ( 'NONE',  ( 0.000000000000000000, -9.500000000000005329, 0.000000000000000000 ) ) ;
#348 = EDGE_LOOP ( 'NONE', ( #307, #607, #918, #119 ) ) ;
#349 = CIRCLE ( 'NONE', #176, 9.500000000000000000 ) ;
#350 = DIRECTION ( 'NONE',  ( 1.267059173938971046E-33, -1.000000000000000000, -0.000000000000000000 ) ) ;
#351 = CIRCLE ( 'NONE', #48, 8.000000000000000000 ) ;
#352 = CARTESIAN_POINT ( 'NONE',  ( -2.010012963072822724E-16, 2.099999999999994316, 0.000000000000000000 ) ) ;
#353 = EDGE_LOOP ( 'NONE', ( #544, #114, #586, #97 ) ) ;
#354 = FACE_OUTER_BOUND ( 'NONE', #252, .T. ) ;
#355 = DIRECTION ( 'NONE',  ( -1.267059173938971046E-33, 1.000000000000000000, -0.000000000000000000 ) ) ;
#356 = CARTESIAN_POINT ( 'NONE',  ( 9.900000000000000355, 2.099999999999994316, 1.212400331155879702E-15 ) ) ;
#357 = ADVANCED_FACE ( 'NONE', ( #298 ), #580, .F. ) ;
#358 = ORIENTED_EDGE ( 'NONE', *, *, #767, .T. ) ;
#359 = ORIENTED_EDGE ( 'NONE', *, *, #314, .F. ) ;
#360 = AXIS2_PLACEMENT_3D ( 'NONE', #118, #109, #199 ) ;
#361 = DIRECTION ( 'NONE',  ( 1.267059173938971046E-33, -1.000000000000000000, -0.000000000000000000 ) ) ;
#362 = LINE ( 'NONE', #425, #289 ) ;
#363 = EDGE_CURVE ( 'NONE', #879, #653, #745, .T. ) ;
#364 = DIRECTION ( 'NONE',  ( -1.000000000000000000, 0.000000000000000000, 0.000000000000000000 ) ) ;
#365 = CIRCLE ( 'NONE', #192, 4.296602439393780060 ) ;
#366 = DIRECTION ( 'NONE',  ( -1.267059173938971046E-33, 1.000000000000000000, -0.000000000000000000 ) ) ;
#367 = AXIS2_PLACEMENT_3D ( 'NONE', #608, #891, #108 ) ;
#368 = CARTESIAN_POINT ( 'NONE',  ( -9.942965132007079987, 6.277137591827385066, 1.217662042294621224E-15 ) ) ;
#369 = EDGE_LOOP ( 'NONE', ( #668, #884, #389, #510 ) ) ;
#370 = CALENDAR_DATE ( 2026, 6, 1 ) ;
#371 = EDGE_CURVE ( 'NONE', #695, #243, #637, .T. ) ;
#372 = DIRECTION ( 'NONE',  ( 1.267059173938971046E-33, -1.000000000000000000, -0.000000000000000000 ) ) ;
#373 = DIRECTION ( 'NONE',  ( 1.000000000000000000, 0.000000000000000000, 0.000000000000000000 ) ) ;
#374 = FACE_OUTER_BOUND ( 'NONE', #557, .T. ) ;
#375 = DATE_TIME_ROLE ( 'classification_date' ) ;
#376 = EDGE_CURVE ( 'NONE', #237, #690, #130, .T. ) ;
#377 = CARTESIAN_POINT ( 'NONE',  ( -9.900000000000000355, 2.099999999999994316, 0.000000000000000000 ) ) ;
#378 = ORIENTED_EDGE ( 'NONE', *, *, #371, .F. ) ;
#379 = CIRCLE ( 'NONE', #731, 8.000000000000000000 ) ;
#380 = CIRCLE ( 'NONE', #116, 4.296602439393780060 ) ;
#381 = FACE_OUTER_BOUND ( 'NONE', #369, .T. ) ;
#382 = EDGE_CURVE ( 'NONE', #752, #123, #896, .T. ) ;
#383 = VERTEX_POINT ( 'NONE', #368 ) ;
#384 = FACE_OUTER_BOUND ( 'NONE', #40, .T. ) ;
#385 = ADVANCED_FACE ( 'NONE', ( #643 ), #450, .T. ) ;
#386 = EDGE_LOOP ( 'NONE', ( #904, #507, #44, #274 ) ) ;
#387 =( NAMED_UNIT ( * ) PLANE_ANGLE_UNIT ( ) SI_UNIT ( $, .RADIAN. ) );
#388 = DIRECTION ( 'NONE',  ( 1.000000000000000000, 0.000000000000000000, 0.000000000000000000 ) ) ;
#389 = ORIENTED_EDGE ( 'NONE', *, *, #613, .T. ) ;
#390 = CARTESIAN_POINT ( 'NONE',  ( -2.010012963072822477E-16, -9.500000000000001776, 0.000000000000000000 ) ) ;
#391 = DIRECTION ( 'NONE',  ( -1.267059173938971046E-33, 1.000000000000000000, 0.000000000000000000 ) ) ;
#392 = CIRCLE ( 'NONE', #492, 9.942965132007081763 ) ;
#393 = ORIENTED_EDGE ( 'NONE', *, *, #585, .F. ) ;
#394 = PERSON_AND_ORGANIZATION ( #895, #54 ) ;
#395 = DIRECTION ( 'NONE',  ( 1.000000000000000000, 0.000000000000000000, 0.000000000000000000 ) ) ;
#396 = ORIENTED_EDGE ( 'NONE', *, *, #633, .F. ) ;
#397 = ADVANCED_FACE ( 'NONE', ( #859 ), #788, .F. ) ;
#398 = DIRECTION ( 'NONE',  ( 1.000000000000000000, 1.267059173938971046E-33, 0.000000000000000000 ) ) ;
#399 = CARTESIAN_POINT ( 'NONE',  ( -8.000000000000000000, 1.999999999999994893, 9.797174393178825657E-16 ) ) ;
#400 = ORIENTED_EDGE ( 'NONE', *, *, #651, .T. ) ;
#401 = CARTESIAN_POINT ( 'NONE',  ( 0.000000000000000000, -9.250000000000005329, 0.000000000000000000 ) ) ;
#402 = CARTESIAN_POINT ( 'NONE',  ( 4.000000000000000000, -9.500000000000003553, 0.000000000000000000 ) ) ;
#403 = EDGE_CURVE ( 'NONE', #206, #879, #226, .T. ) ;
#404 = AXIS2_PLACEMENT_3D ( 'NONE', #652, #705, #501 ) ;
#405 = ORIENTED_EDGE ( 'NONE', *, *, #476, .T. ) ;
#406 = VECTOR ( 'NONE', #467, 1000.000000000000227 ) ;
#407 = DESIGN_CONTEXT ( 'detailed design', #417, 'design' ) ;
#408 = LINE ( 'NONE', #197, #406 ) ;
#409 = CARTESIAN_POINT ( 'NONE',  ( -3.169499999999998874, 9.499999999999994671, 3.881518029897534236E-16 ) ) ;
#410 = ORIENTED_EDGE ( 'NONE', *, *, #65, .T. ) ;
#411 = ADVANCED_FACE ( 'NONE', ( #384 ), #45, .T. ) ;
#412 = FACE_OUTER_BOUND ( 'NONE', #99, .T. ) ;
#413 = CC_DESIGN_SECURITY_CLASSIFICATION ( #431, ( #889 ) ) ;
#414 = CARTESIAN_POINT ( 'NONE',  ( -3.577249852633265892, 9.305989748765368219, 8.278744002361941028E-16 ) ) ;
#415 = CONICAL_SURFACE ( 'NONE', #185, 6.500000000000000000, 0.5766737180691438036 ) ;
#416 = ORIENTED_EDGE ( 'NONE', *, *, #363, .F. ) ;
#417 = APPLICATION_CONTEXT ( 'configuration controlled 3d designs of mechanical parts and assemblies' ) ;
#418 = DIRECTION ( 'NONE',  ( -1.000000000000000000, 0.000000000000000000, 0.000000000000000000 ) ) ;
#419 = FACE_OUTER_BOUND ( 'NONE', #53, .T. ) ;
#420 = EDGE_LOOP ( 'NONE', ( #77, #777, #687, #378 ) ) ;
#421 = CARTESIAN_POINT ( 'NONE',  ( -2.010012963072822724E-16, 6.186838104389115855, 0.000000000000000000 ) ) ;
#422 = CIRCLE ( 'NONE', #300, 4.066911586224360775 ) ;
#423 = ADVANCED_FACE ( 'NONE', ( #19 ), #508, .T. ) ;
#424 = CARTESIAN_POINT ( 'NONE',  ( -2.010012963072822724E-16, 8.549999999999998934, 0.000000000000000000 ) ) ;
#425 = CARTESIAN_POINT ( 'NONE',  ( 3.169499999999998874, 9.499999999999994671, 0.000000000000000000 ) ) ;
#426 = ORIENTED_EDGE ( 'NONE', *, *, #403, .F. ) ;
#427 = DIRECTION ( 'NONE',  ( 1.267059173938971046E-33, -1.000000000000000000, -0.000000000000000000 ) ) ;
#428 = CARTESIAN_POINT ( 'NONE',  ( 3.000000000000003109, -7.742381337702813227, 5.817072295949929398E-16 ) ) ;
#429 = ADVANCED_FACE ( 'NONE', ( #657 ), #746, .T. ) ;
#430 = DIRECTION ( 'NONE',  ( 1.267059173938971046E-33, -1.000000000000000000, -0.000000000000000000 ) ) ;
#431 = SECURITY_CLASSIFICATION ( '', '', #79 ) ;
#432 = AXIS2_PLACEMENT_3D ( 'NONE', #914, #350, #783 ) ;
#433 = CARTESIAN_POINT ( 'NONE',  ( -2.010012963072822477E-16, -9.500000000000005329, 0.000000000000000000 ) ) ;
#434 = CYLINDRICAL_SURFACE ( 'NONE', #432, 10.00000000000000000 ) ;
#435 = DIRECTION ( 'NONE',  ( 1.267059173938971046E-33, -1.000000000000000000, -0.000000000000000000 ) ) ;
#436 = EDGE_CURVE ( 'NONE', #222, #829, #115, .T. ) ;
#437 = DIRECTION ( 'NONE',  ( -1.267059173938971046E-33, 1.000000000000000000, -0.000000000000000000 ) ) ;
#438 = AXIS2_PLACEMENT_3D ( 'NONE', #232, #742, #27 ) ;
#439 = CARTESIAN_POINT ( 'NONE',  ( -9.500000000000000000, -9.500000000000001776, 1.163414459189985485E-15 ) ) ;
#440 = ORIENTED_EDGE ( 'NONE', *, *, #314, .T. ) ;
#441 = DIRECTION ( 'NONE',  ( 1.267059173938971046E-33, -1.000000000000000000, -0.000000000000000000 ) ) ;
#442 = EDGE_CURVE ( 'NONE', #213, #122, #760, .T. ) ;
#443 = DIRECTION ( 'NONE',  ( -0.5452385996171413840, 0.8382809013019076883, 0.000000000000000000 ) ) ;
#444 = CARTESIAN_POINT ( 'NONE',  ( 3.169499999999995321, 8.549999999999998934, 0.000000000000000000 ) ) ;
#445 = ORIENTED_EDGE ( 'NONE', *, *, #285, .F. ) ;
#446 = LOCAL_TIME ( 9, 35, 51.00000000000000000, #744 ) ;
#447 = DIRECTION ( 'NONE',  ( -1.267059173938971046E-33, 1.000000000000000000, 0.000000000000000000 ) ) ;
#448 = ORIENTED_EDGE ( 'NONE', *, *, #308, .T. ) ;
#449 = APPROVAL_STATUS ( 'not_yet_approved' ) ;
#450 = CONICAL_SURFACE ( 'NONE', #552, 9.500000000000000000, 0.5766737180691436926 ) ;
#451 = EDGE_CURVE ( 'NONE', #894, #383, #803, .T. ) ;
#452 = TOROIDAL_SURFACE ( 'NONE', #610, 9.899999999999998579, 0.1000000000000000056 ) ;
#453 = CARTESIAN_POINT ( 'NONE',  ( -2.010012963072822724E-16, 2.099999999999994316, 0.000000000000000000 ) ) ;
#454 = CLOSED_SHELL ( 'NONE', ( #33, #515, #753, #129, #201, #723, #727, #495, #385, #429, #916, #38, #488, #137, #357, #332, #72, #825, #234, #669, #143, #590, #423, #411, #686, #534, #182, #239, #519, #397, #561, #789, #272 ) ) ;
#455 = ORIENTED_EDGE ( 'NONE', *, *, #228, .T. ) ;
#456 = DIRECTION ( 'NONE',  ( -1.000000000000000000, 0.000000000000000000, 0.000000000000000000 ) ) ;
#457 = DIRECTION ( 'NONE',  ( -1.267059173938971046E-33, 1.000000000000000000, 0.000000000000000000 ) ) ;
#458 = ORIENTED_EDGE ( 'NONE', *, *, #195, .T. ) ;
#459 = PRODUCT ( '7291N12_Wet-Environment Sealing Grommet', '7291N12_Wet-Environment Sealing Grommet', '', ( #656 ) ) ;
#460 = DIRECTION ( 'NONE',  ( 1.267059173938971046E-33, -1.000000000000000000, -0.000000000000000000 ) ) ;
#461 = VECTOR ( 'NONE', #773, 1000.000000000000000 ) ;
#462 = ORIENTED_EDGE ( 'NONE', *, *, #345, .F. ) ;
#463 = CARTESIAN_POINT ( 'NONE',  ( 9.500000000000000000, -0.5000000000000038858, 0.000000000000000000 ) ) ;
#464 = AXIS2_PLACEMENT_3D ( 'NONE', #356, #12, #133 ) ;
#465 = ORIENTED_EDGE ( 'NONE', *, *, #302, .F. ) ;
#466 = EDGE_CURVE ( 'NONE', #730, #248, #102, .T. ) ;
#467 = DIRECTION ( 'NONE',  ( 0.9029948743826861079, -0.4296513200708184654, 0.000000000000000000 ) ) ;
#468 = FACE_OUTER_BOUND ( 'NONE', #743, .T. ) ;
#469 = ORIENTED_EDGE ( 'NONE', *, *, #734, .T. ) ;
#470 = EDGE_CURVE ( 'NONE', #839, #850, #638, .T. ) ;
#471 = LINE ( 'NONE', #820, #15 ) ;
#472 = ADVANCED_BREP_SHAPE_REPRESENTATION ( '7291N12_Wet-Environment Sealing Grommet', ( #309, #219 ), #905 ) ;
#473 = PLANE ( 'NONE',  #797 ) ;
#474 = ORIENTED_EDGE ( 'NONE', *, *, #738, .T. ) ;
#475 = FACE_OUTER_BOUND ( 'NONE', #816, .T. ) ;
#476 = EDGE_CURVE ( 'NONE', #730, #127, #596, .T. ) ;
#477 = CARTESIAN_POINT ( 'NONE',  ( -9.500000000000000000, -0.5000000000000038858, 1.163414459189985485E-15 ) ) ;
#478 = AXIS2_PLACEMENT_3D ( 'NONE', #886, #325, #250 ) ;
#479 = ORIENTED_EDGE ( 'NONE', *, *, #285, .T. ) ;
#480 = CARTESIAN_POINT ( 'NONE',  ( -4.000000000000000000, -9.500000000000003553, 4.939558726537254207E-16 ) ) ;
#481 = DIRECTION ( 'NONE',  ( -0.9029948743826858859, -0.4296513200708187985, 1.105849782559222577E-16 ) ) ;
#482 = ORIENTED_EDGE ( 'NONE', *, *, #556, .T. ) ;
#483 = DIRECTION ( 'NONE',  ( 1.000000000000000000, 0.000000000000000000, -1.224646799147353700E-16 ) ) ;
#484 = DIRECTION ( 'NONE',  ( 1.000000000000000000, 0.000000000000000000, 0.000000000000000000 ) ) ;
#485 = ORIENTED_EDGE ( 'NONE', *, *, #857, .F. ) ;
#486 = VECTOR ( 'NONE', #481, 1000.000000000000114 ) ;
#487 = CARTESIAN_POINT ( 'NONE',  ( 5.834059438752476012, -9.500000000000005329, 0.000000000000000000 ) ) ;
#488 = ADVANCED_FACE ( 'NONE', ( #807 ), #578, .T. ) ;
#489 = DIRECTION ( 'NONE',  ( 1.267059173938971046E-33, -1.000000000000000000, -0.000000000000000000 ) ) ;
#490 = CARTESIAN_POINT ( 'NONE',  ( 3.000000000000002665, -9.500000000000005329, 3.673940397442062826E-16 ) ) ;
#491 = ORIENTED_EDGE ( 'NONE', *, *, #78, .T. ) ;
#492 = AXIS2_PLACEMENT_3D ( 'NONE', #550, #120, #683 ) ;
#493 = DIRECTION ( 'NONE',  ( -1.000000000000000000, 0.000000000000000000, 0.000000000000000000 ) ) ;
#494 = TOROIDAL_SURFACE ( 'NONE', #91, 4.000000000000000000, 0.2499999999999995837 ) ;
#495 = ADVANCED_FACE ( 'NONE', ( #737 ), #699, .T. ) ;
#496 = DIRECTION ( 'NONE',  ( -1.267059173938971046E-33, 1.000000000000000000, 0.000000000000000000 ) ) ;
#497 = CARTESIAN_POINT ( 'NONE',  ( -2.010012963072822724E-16, 9.499999999999996447, 0.000000000000000000 ) ) ;
#498 = ORIENTED_EDGE ( 'NONE', *, *, #158, .F. ) ;
#499 = DIRECTION ( 'NONE',  ( 1.000000000000000000, 0.000000000000000000, 0.000000000000000000 ) ) ;
#500 = DIRECTION ( 'NONE',  ( -1.000000000000000000, 0.000000000000000000, 0.000000000000000000 ) ) ;
#501 = DIRECTION ( 'NONE',  ( -1.000000000000000000, 0.000000000000000000, 0.000000000000000000 ) ) ;
#502 = AXIS2_PLACEMENT_3D ( 'NONE', #424, #504, #80 ) ;
#503 = VERTEX_POINT ( 'NONE', #463 ) ;
#504 = DIRECTION ( 'NONE',  ( -1.267059173938971046E-33, 1.000000000000000000, -0.000000000000000000 ) ) ;
#505 = FACE_OUTER_BOUND ( 'NONE', #605, .T. ) ;
#506 = EDGE_CURVE ( 'NONE', #503, #243, #349, .T. ) ;
#507 = ORIENTED_EDGE ( 'NONE', *, *, #266, .F. ) ;
#508 = CONICAL_SURFACE ( 'NONE', #790, 9.500000000000000000, 0.5766737180691436926 ) ;
#509 = DIRECTION ( 'NONE',  ( -1.267059173938971046E-33, 1.000000000000000000, 0.000000000000000000 ) ) ;
#510 = ORIENTED_EDGE ( 'NONE', *, *, #172, .F. ) ;
#511 = APPLICATION_PROTOCOL_DEFINITION ( 'international standard', 'config_control_design', 1994, #31 ) ;
#512 = DIRECTION ( 'NONE',  ( -1.267059173938971046E-33, 1.000000000000000000, -0.000000000000000000 ) ) ;
#513 = ORIENTED_EDGE ( 'NONE', *, *, #470, .T. ) ;
#514 = APPROVAL_PERSON_ORGANIZATION ( #394, #245, #676 ) ;
#515 = ADVANCED_FACE ( 'NONE', ( #882 ), #728, .F. ) ;
#516 = COORDINATED_UNIVERSAL_TIME_OFFSET ( 6, 0, .BEHIND. ) ;
#517 = DIRECTION ( 'NONE',  ( -0.000000000000000000, -1.000000000000000000, -0.000000000000000000 ) ) ;
#518 = EDGE_LOOP ( 'NONE', ( #17, #917, #735, #230 ) ) ;
#519 = ADVANCED_FACE ( 'NONE', ( #381 ), #30, .F. ) ;
#520 = COORDINATED_UNIVERSAL_TIME_OFFSET ( 6, 0, .BEHIND. ) ;
#521 = VECTOR ( 'NONE', #288, 999.9999999999998863 ) ;
#522 = CIRCLE ( 'NONE', #242, 1.834059438752476012 ) ;
#523 = CC_DESIGN_PERSON_AND_ORGANIZATION_ASSIGNMENT ( #822, #892, ( #431 ) ) ;
#524 = CARTESIAN_POINT ( 'NONE',  ( -2.010012963072822724E-16, 9.499999999999998224, 0.000000000000000000 ) ) ;
#525 = ORIENTED_EDGE ( 'NONE', *, *, #88, .T. ) ;
#526 = EDGE_LOOP ( 'NONE', ( #812, #57 ) ) ;
#527 = DIRECTION ( 'NONE',  ( 1.267059173938971046E-33, -1.000000000000000000, -0.000000000000000000 ) ) ;
#528 = DIRECTION ( 'NONE',  ( -1.267059173938971046E-33, 1.000000000000000000, 0.000000000000000000 ) ) ;
#529 = EDGE_CURVE ( 'NONE', #695, #50, #365, .T. ) ;
#530 = APPROVAL_ROLE ( '' ) ;
#531 = ORIENTED_EDGE ( 'NONE', *, *, #865, .F. ) ;
#532 = CIRCLE ( 'NONE', #124, 6.500000000000000888 ) ;
#533 = CARTESIAN_POINT ( 'NONE',  ( 0.000000000000000000, -9.009120694893251624, 0.000000000000000000 ) ) ;
#534 = ADVANCED_FACE ( 'NONE', ( #798 ), #880, .T. ) ;
#535 = EDGE_LOOP ( 'NONE', ( #823, #20 ) ) ;
#536 = CARTESIAN_POINT ( 'NONE',  ( 0.000000000000000000, -9.009120694893251624, 0.000000000000000000 ) ) ;
#537 = AXIS2_PLACEMENT_3D ( 'NONE', #147, #512, #603 ) ;
#538 = VECTOR ( 'NONE', #680, 1000.000000000000000 ) ;
#539 = PERSON_AND_ORGANIZATION ( #895, #54 ) ;
#540 = ORIENTED_EDGE ( 'NONE', *, *, #470, .F. ) ;
#541 = ORIENTED_EDGE ( 'NONE', *, *, #545, .T. ) ;
#542 = DIRECTION ( 'NONE',  ( -1.267059173938971046E-33, 1.000000000000000000, 0.000000000000000000 ) ) ;
#543 = DIRECTION ( 'NONE',  ( 1.000000000000000000, 1.267059173938971046E-33, 0.000000000000000000 ) ) ;
#544 = ORIENTED_EDGE ( 'NONE', *, *, #651, .F. ) ;
#545 = EDGE_CURVE ( 'NONE', #343, #839, #471, .T. ) ;
#546 = CARTESIAN_POINT ( 'NONE',  ( -10.00000000000000000, -9.500000000000001776, 1.224646799147353256E-15 ) ) ;
#547 = CIRCLE ( 'NONE', #858, 0.09999999999999939493 ) ;
#548 = LINE ( 'NONE', #409, #486 ) ;
#549 = VERTEX_POINT ( 'NONE', #180 ) ;
#550 = CARTESIAN_POINT ( 'NONE',  ( -2.010012963072822724E-16, 6.277137591827385066, 0.000000000000000000 ) ) ;
#551 = CARTESIAN_POINT ( 'NONE',  ( 6.500000000000000000, -2.361281839947382277, 7.960204194457795477E-16 ) ) ;
#552 = AXIS2_PLACEMENT_3D ( 'NONE', #720, #293, #574 ) ;
#553 = ORIENTED_EDGE ( 'NONE', *, *, #817, .T. ) ;
#554 = AXIS2_PLACEMENT_3D ( 'NONE', #421, #860, #493 ) ;
#555 = DIRECTION ( 'NONE',  ( -1.000000000000000000, -1.267059173938971046E-33, 0.000000000000000000 ) ) ;
#556 = EDGE_CURVE ( 'NONE', #383, #894, #392, .T. ) ;
#557 = EDGE_LOOP ( 'NONE', ( #794, #36, #152, #278 ) ) ;
#558 = CARTESIAN_POINT ( 'NONE',  ( 9.500000000000000000, -9.500000000000001776, 0.000000000000000000 ) ) ;
#559 = CARTESIAN_POINT ( 'NONE',  ( -2.010012963072822724E-16, 8.549999999999998934, 0.000000000000000000 ) ) ;
#560 = ORIENTED_EDGE ( 'NONE', *, *, #887, .F. ) ;
#561 = ADVANCED_FACE ( 'NONE', ( #750 ), #16, .F. ) ;
#562 = DIRECTION ( 'NONE',  ( 1.000000000000000000, 0.000000000000000000, 0.000000000000000000 ) ) ;
#563 = CARTESIAN_POINT ( 'NONE',  ( -4.296602439393780060, -8.500000000000001776, 5.261820424612302770E-16 ) ) ;
#564 = DIRECTION ( 'NONE',  ( 1.267059173938971046E-33, -1.000000000000000000, -0.000000000000000000 ) ) ;
#565 = ORIENTED_EDGE ( 'NONE', *, *, #51, .F. ) ;
#566 = ORIENTED_EDGE ( 'NONE', *, *, #901, .F. ) ;
#567 = ORIENTED_EDGE ( 'NONE', *, *, #749, .T. ) ;
#568 = CIRCLE ( 'NONE', #162, 9.900000000000000355 ) ;
#569 = DIRECTION ( 'NONE',  ( -1.000000000000000000, 0.000000000000000000, 0.000000000000000000 ) ) ;
#570 = DIRECTION ( 'NONE',  ( 1.000000000000000000, 1.267059173938971046E-33, 0.000000000000000000 ) ) ;
#571 = CARTESIAN_POINT ( 'NONE',  ( 4.296602439393780060, -8.500000000000001776, 0.000000000000000000 ) ) ;
#572 = APPROVAL ( #449, 'UNSPECIFIED' ) ;
#573 = DIRECTION ( 'NONE',  ( -1.267059173938971046E-33, 1.000000000000000000, 0.000000000000000000 ) ) ;
#574 = DIRECTION ( 'NONE',  ( -1.000000000000000000, 0.000000000000000000, 0.000000000000000000 ) ) ;
#575 = AXIS2_PLACEMENT_3D ( 'NONE', #919, #719, #204 ) ;
#576 = DIRECTION ( 'NONE',  ( 1.267059173938971046E-33, -1.000000000000000000, -0.000000000000000000 ) ) ;
#577 = DIRECTION ( 'NONE',  ( 1.000000000000000000, 1.267059173938971046E-33, 0.000000000000000000 ) ) ;
#578 = CONICAL_SURFACE ( 'NONE', #241, 3.169499999999998874, 1.126689722565649587 ) ;
#579 = DATE_AND_TIME ( #718, #10 ) ;
#580 = TOROIDAL_SURFACE ( 'NONE', #161, 5.834059438752476012, 1.834059438752476456 ) ;
#581 = ORIENTED_EDGE ( 'NONE', *, *, #112, .T. ) ;
#582 = DIRECTION ( 'NONE',  ( 1.000000000000000000, 0.000000000000000000, 1.224646799147353947E-16 ) ) ;
#583 = CIRCLE ( 'NONE', #179, 4.000000000000000000 ) ;
#584 = CARTESIAN_POINT ( 'NONE',  ( -2.010012963072822724E-16, 0.9999999999999940048, 0.000000000000000000 ) ) ;
#585 = EDGE_CURVE ( 'NONE', #290, #868, #90, .T. ) ;
#586 = ORIENTED_EDGE ( 'NONE', *, *, #103, .T. ) ;
#587 = PERSON_AND_ORGANIZATION_ROLE ( 'design_owner' ) ;
#588 = DIRECTION ( 'NONE',  ( -1.267059173938971046E-33, 1.000000000000000000, -0.000000000000000000 ) ) ;
#589 = ORIENTED_EDGE ( 'NONE', *, *, #626, .F. ) ;
#590 = ADVANCED_FACE ( 'NONE', ( #412 ), #346, .T. ) ;
#591 = AXIS2_PLACEMENT_3D ( 'NONE', #390, #527, #736 ) ;
#592 = CC_DESIGN_DATE_AND_TIME_ASSIGNMENT ( #579, #375, ( #431 ) ) ;
#593 = DIRECTION ( 'NONE',  ( 1.000000000000000000, 0.000000000000000000, 0.000000000000000000 ) ) ;
#594 = EDGE_LOOP ( 'NONE', ( #560, #317, #553, #410 ) ) ;
#595 = APPLICATION_PROTOCOL_DEFINITION ( 'international standard', 'config_control_design', 1994, #417 ) ;
#596 = CIRCLE ( 'NONE', #774, 4.066911586224360775 ) ;
#597 = CARTESIAN_POINT ( 'NONE',  ( -2.010012963072822477E-16, -9.500000000000001776, 0.000000000000000000 ) ) ;
#598 = AXIS2_PLACEMENT_3D ( 'NONE', #634, #644, #782 ) ;
#599 = ORIENTED_EDGE ( 'NONE', *, *, #451, .T. ) ;
#600 = ORIENTED_EDGE ( 'NONE', *, *, #697, .F. ) ;
#601 = CARTESIAN_POINT ( 'NONE',  ( 6.500000000000000000, -2.361281839947382277, 7.960204194457795477E-16 ) ) ;
#602 = EDGE_CURVE ( 'NONE', #706, #383, #819, .T. ) ;
#603 = DIRECTION ( 'NONE',  ( -1.000000000000000000, 0.000000000000000000, 0.000000000000000000 ) ) ;
#604 = APPROVAL_STATUS ( 'not_yet_approved' ) ;
#605 = EDGE_LOOP ( 'NONE', ( #62, #890 ) ) ;
#606 = CARTESIAN_POINT ( 'NONE',  ( -9.899999999999998579, 6.186838104389115855, 0.000000000000000000 ) ) ;
#607 = ORIENTED_EDGE ( 'NONE', *, *, #865, .T. ) ;
#608 = CARTESIAN_POINT ( 'NONE',  ( -2.010012963072822724E-16, 9.499999999999996447, 0.000000000000000000 ) ) ;
#609 = AXIS2_PLACEMENT_3D ( 'NONE', #246, #320, #874 ) ;
#610 = AXIS2_PLACEMENT_3D ( 'NONE', #856, #496, #708 ) ;
#611 = FACE_OUTER_BOUND ( 'NONE', #799, .T. ) ;
#612 = VERTEX_POINT ( 'NONE', #754 ) ;
#613 = EDGE_CURVE ( 'NONE', #290, #549, #408, .T. ) ;
#614 = DIRECTION ( 'NONE',  ( 1.000000000000000000, 0.000000000000000000, 0.000000000000000000 ) ) ;
#615 = DIRECTION ( 'NONE',  ( -1.267059173938971046E-33, 1.000000000000000000, 0.000000000000000000 ) ) ;
#616 = ORIENTED_EDGE ( 'NONE', *, *, #585, .T. ) ;
#617 = DIRECTION ( 'NONE',  ( -1.267059173938971046E-33, 1.000000000000000000, -0.000000000000000000 ) ) ;
#618 = DIRECTION ( 'NONE',  ( 1.267059173938971046E-33, -1.000000000000000000, 0.000000000000000000 ) ) ;
#619 = ORIENTED_EDGE ( 'NONE', *, *, #442, .T. ) ;
#620 = DIRECTION ( 'NONE',  ( -1.267059173938971046E-33, 1.000000000000000000, -0.000000000000000000 ) ) ;
#621 = CARTESIAN_POINT ( 'NONE',  ( -2.010012963072822724E-16, 6.965324646804771369, 0.000000000000000000 ) ) ;
#622 = AXIS2_PLACEMENT_3D ( 'NONE', #352, #762, #793 ) ;
#623 = ORIENTED_EDGE ( 'NONE', *, *, #640, .T. ) ;
#624 = CIRCLE ( 'NONE', #34, 6.500000000000000000 ) ;
#625 = FACE_OUTER_BOUND ( 'NONE', #149, .T. ) ;
#626 = EDGE_CURVE ( 'NONE', #213, #237, #3, .T. ) ;
#627 = DIRECTION ( 'NONE',  ( -1.000000000000000000, 0.000000000000000000, 0.000000000000000000 ) ) ;
#628 = VERTEX_POINT ( 'NONE', #688 ) ;
#629 = DIRECTION ( 'NONE',  ( 0.000000000000000000, 0.000000000000000000, -1.000000000000000000 ) ) ;
#630 = DIRECTION ( 'NONE',  ( 1.000000000000000000, 0.000000000000000000, -1.224646799147353700E-16 ) ) ;
#631 = DIRECTION ( 'NONE',  ( 1.000000000000000000, 0.000000000000000000, 0.000000000000000000 ) ) ;
#632 = EDGE_LOOP ( 'NONE', ( #426, #299, #872, #416 ) ) ;
#633 = EDGE_CURVE ( 'NONE', #706, #653, #111, .T. ) ;
#634 = CARTESIAN_POINT ( 'NONE',  ( 3.167647934847408371E-34, -9.500000000000003553, 0.000000000000000000 ) ) ;
#635 = EDGE_LOOP ( 'NONE', ( #842, #541, #513, #679 ) ) ;
#636 = LINE ( 'NONE', #136, #461 ) ;
#637 = LINE ( 'NONE', #2, #521 ) ;
#638 = CIRCLE ( 'NONE', #478, 3.000000000000003109 ) ;
#639 = LINE ( 'NONE', #218, #747 ) ;
#640 = EDGE_CURVE ( 'NONE', #123, #752, #335, .T. ) ;
#641 = AXIS2_PLACEMENT_3D ( 'NONE', #183, #542, #902 ) ;
#642 = CARTESIAN_POINT ( 'NONE',  ( -2.010012963072822724E-16, 2.099999999999994316, 0.000000000000000000 ) ) ;
#643 = FACE_OUTER_BOUND ( 'NONE', #420, .T. ) ;
#644 = DIRECTION ( 'NONE',  ( -1.267059173938971046E-33, 1.000000000000000000, 0.000000000000000000 ) ) ;
#645 = DATE_AND_TIME ( #370, #170 ) ;
#646 = DIRECTION ( 'NONE',  ( 1.224646799147353207E-16, 1.551699961694650428E-49, 1.000000000000000000 ) ) ;
#647 = CARTESIAN_POINT ( 'NONE',  ( -2.010012963072822724E-16, 1.999999999999994893, 0.000000000000000000 ) ) ;
#648 = VECTOR ( 'NONE', #310, 1000.000000000000000 ) ;
#649 = DIRECTION ( 'NONE',  ( -1.267059173938971046E-33, 1.000000000000000000, -0.000000000000000000 ) ) ;
#650 = CARTESIAN_POINT ( 'NONE',  ( -2.010012963072822724E-16, 0.9999999999999940048, 0.000000000000000000 ) ) ;
#651 = EDGE_CURVE ( 'NONE', #127, #695, #522, .T. ) ;
#652 = CARTESIAN_POINT ( 'NONE',  ( 2.717947212491627074, 7.499999999999996447, 0.000000000000000000 ) ) ;
#653 = VERTEX_POINT ( 'NONE', #41 ) ;
#654 = AXIS2_PLACEMENT_3D ( 'NONE', #809, #391, #22 ) ;
#655 = AXIS2_PLACEMENT_3D ( 'NONE', #330, #188, #698 ) ;
#656 = MECHANICAL_CONTEXT ( 'NONE', #31, 'mechanical' ) ;
#657 = FACE_OUTER_BOUND ( 'NONE', #778, .T. ) ;
#658 = EDGE_CURVE ( 'NONE', #127, #730, #422, .T. ) ;
#659 = VERTEX_POINT ( 'NONE', #480 ) ;
#660 = DIRECTION ( 'NONE',  ( 0.000000000000000000, 0.000000000000000000, 1.000000000000000000 ) ) ;
#661 = DIRECTION ( 'NONE',  ( -1.000000000000000000, -1.267059173938971046E-33, 0.000000000000000000 ) ) ;
#662 = ORIENTED_EDGE ( 'NONE', *, *, #51, .T. ) ;
#663 = EDGE_CURVE ( 'NONE', #50, #695, #380, .T. ) ;
#664 = AXIS2_PLACEMENT_3D ( 'NONE', #650, #460, #805 ) ;
#665 = DATE_AND_TIME ( #238, #740 ) ;
#666 = DIRECTION ( 'NONE',  ( -1.000000000000000000, 0.000000000000000000, 0.000000000000000000 ) ) ;
#667 = AXIS2_PLACEMENT_3D ( 'NONE', #151, #920, #570 ) ;
#668 = ORIENTED_EDGE ( 'NONE', *, *, #228, .F. ) ;
#669 = ADVANCED_FACE ( 'NONE', ( #475 ), #267, .T. ) ;
#670 = DIRECTION ( 'NONE',  ( -1.267059173938971046E-33, 1.000000000000000000, -0.000000000000000000 ) ) ;
#671 = CIRCLE ( 'NONE', #464, 0.09999999999999939493 ) ;
#672 = CARTESIAN_POINT ( 'NONE',  ( -2.010012963072822724E-16, 1.999999999999994449, 0.000000000000000000 ) ) ;
#673 = CIRCLE ( 'NONE', #229, 3.000000000000002665 ) ;
#674 = APPROVAL_DATE_TIME ( #645, #25 ) ;
#675 = ORIENTED_EDGE ( 'NONE', *, *, #376, .F. ) ;
#676 = APPROVAL_ROLE ( '' ) ;
#677 = DIRECTION ( 'NONE',  ( -1.000000000000000000, 0.000000000000000000, 0.000000000000000000 ) ) ;
#678 = CIRCLE ( 'NONE', #198, 3.000000000000003109 ) ;
#679 = ORIENTED_EDGE ( 'NONE', *, *, #96, .F. ) ;
#680 = DIRECTION ( 'NONE',  ( 1.267059173938971046E-33, -1.000000000000000000, -0.000000000000000000 ) ) ;
#681 = DIRECTION ( 'NONE',  ( -1.000000000000000000, 0.000000000000000000, 0.000000000000000000 ) ) ;
#682 = EDGE_LOOP ( 'NONE', ( #875, #400, #846, #913 ) ) ;
#683 = DIRECTION ( 'NONE',  ( -1.000000000000000000, 0.000000000000000000, 0.000000000000000000 ) ) ;
#684 = AXIS2_PLACEMENT_3D ( 'NONE', #142, #435, #76 ) ;
#685 = LINE ( 'NONE', #837, #138 ) ;
#686 = ADVANCED_FACE ( 'NONE', ( #259 ), #258, .T. ) ;
#687 = ORIENTED_EDGE ( 'NONE', *, *, #506, .T. ) ;
#688 = CARTESIAN_POINT ( 'NONE',  ( -8.000000000000000000, 0.9999999999999940048, 9.797174393178825657E-16 ) ) ;
#689 = DIRECTION ( 'NONE',  ( -1.267059173938971046E-33, 1.000000000000000000, -0.000000000000000000 ) ) ;
#690 = VERTEX_POINT ( 'NONE', #58 ) ;
#691 = EDGE_CURVE ( 'NONE', #50, #503, #263, .T. ) ;
#692 = DIRECTION ( 'NONE',  ( -0.000000000000000000, -1.000000000000000000, -0.000000000000000000 ) ) ;
#693 = CIRCLE ( 'NONE', #69, 10.00000000000000000 ) ;
#694 = FACE_OUTER_BOUND ( 'NONE', #518, .T. ) ;
#695 = VERTEX_POINT ( 'NONE', #563 ) ;
#696 = CIRCLE ( 'NONE', #93, 9.500000000000000000 ) ;
#697 = EDGE_CURVE ( 'NONE', #690, #122, #897, .T. ) ;
#698 = DIRECTION ( 'NONE',  ( 1.000000000000000000, 0.000000000000000000, 0.000000000000000000 ) ) ;
#699 = TOROIDAL_SURFACE ( 'NONE', #818, 9.900000000000000355, 0.1000000000000000056 ) ;
#700 = CARTESIAN_POINT ( 'NONE',  ( 2.717947212491627074, 9.499999999999996447, 0.000000000000000000 ) ) ;
#701 = EDGE_LOOP ( 'NONE', ( #566, #824, #110, #771 ) ) ;
#702 = CARTESIAN_POINT ( 'NONE',  ( -2.010012963072822724E-16, 9.499999999999994671, 0.000000000000000000 ) ) ;
#703 = CIRCLE ( 'NONE', #598, 4.000000000000000000 ) ;
#704 = CARTESIAN_POINT ( 'NONE',  ( 8.000000000000000000, -9.500000000000001776, 0.000000000000000000 ) ) ;
#705 = DIRECTION ( 'NONE',  ( 0.000000000000000000, 0.000000000000000000, -1.000000000000000000 ) ) ;
#706 = VERTEX_POINT ( 'NONE', #297 ) ;
#707 = DIRECTION ( 'NONE',  ( 1.000000000000000000, 0.000000000000000000, 0.000000000000000000 ) ) ;
#708 = DIRECTION ( 'NONE',  ( -1.000000000000000000, -1.267059173938971046E-33, 0.000000000000000000 ) ) ;
#709 = CIRCLE ( 'NONE', #502, 3.169499999999995321 ) ;
#710 = DIRECTION ( 'NONE',  ( -1.000000000000000000, 0.000000000000000000, 0.000000000000000000 ) ) ;
#711 = CC_DESIGN_PERSON_AND_ORGANIZATION_ASSIGNMENT ( #26, #159, ( #795 ) ) ;
#712 = ORIENTED_EDGE ( 'NONE', *, *, #738, .F. ) ;
#713 = DIRECTION ( 'NONE',  ( 1.267059173938971046E-33, -1.000000000000000000, -0.000000000000000000 ) ) ;
#714 = DIRECTION ( 'NONE',  ( 1.267059173938971046E-33, -1.000000000000000000, -0.000000000000000000 ) ) ;
#715 = TOROIDAL_SURFACE ( 'NONE', #667, 2.717947212491627074, 2.000000000000000000 ) ;
#716 = AXIS2_PLACEMENT_3D ( 'NONE', #672, #89, #100 ) ;
#717 = DIRECTION ( 'NONE',  ( -1.267059173938971046E-33, 1.000000000000000000, 0.000000000000000000 ) ) ;
#718 = CALENDAR_DATE ( 2026, 6, 1 ) ;
#719 = DIRECTION ( 'NONE',  ( -1.267059173938971046E-33, 1.000000000000000000, -0.000000000000000000 ) ) ;
#720 = CARTESIAN_POINT ( 'NONE',  ( -2.010012963072822477E-16, -0.5000000000000038858, 0.000000000000000000 ) ) ;
#721 = UNCERTAINTY_MEASURE_WITH_UNIT (LENGTH_MEASURE( 1.000000000000000082E-05 ), #164, 'distance_accuracy_value', 'NONE');
#722 = DIRECTION ( 'NONE',  ( -1.267059173938971046E-33, 1.000000000000000000, -0.000000000000000000 ) ) ;
#723 = ADVANCED_FACE ( 'NONE', ( #844 ), #494, .T. ) ;
#724 = CARTESIAN_POINT ( 'NONE',  ( -2.010012963072822724E-16, 9.305989748765368219, 0.000000000000000000 ) ) ;
#725 = PLANE ( 'NONE',  #333 ) ;
#726 = EDGE_LOOP ( 'NONE', ( #766, #757, #191, #748 ) ) ;
#727 = ADVANCED_FACE ( 'NONE', ( #141 ), #452, .T. ) ;
#728 = CYLINDRICAL_SURFACE ( 'NONE', #59, 3.000000000000002665 ) ;
#729 = ORIENTED_EDGE ( 'NONE', *, *, #529, .F. ) ;
#730 = VERTEX_POINT ( 'NONE', #74 ) ;
#731 = AXIS2_PLACEMENT_3D ( 'NONE', #647, #205, #217 ) ;
#732 = AXIS2_PLACEMENT_3D ( 'NONE', #216, #366, #500 ) ;
#733 = CARTESIAN_POINT ( 'NONE',  ( -2.010012963072822477E-16, -8.500000000000001776, 0.000000000000000000 ) ) ;
#734 = EDGE_CURVE ( 'NONE', #343, #808, #210, .T. ) ;
#735 = ORIENTED_EDGE ( 'NONE', *, *, #922, .T. ) ;
#736 = DIRECTION ( 'NONE',  ( 1.000000000000000000, 0.000000000000000000, 0.000000000000000000 ) ) ;
#737 = FACE_OUTER_BOUND ( 'NONE', #632, .T. ) ;
#738 = EDGE_CURVE ( 'NONE', #752, #243, #209, .T. ) ;
#739 = ORIENTED_EDGE ( 'NONE', *, *, #78, .F. ) ;
#740 = LOCAL_TIME ( 9, 35, 51.00000000000000000, #516 ) ;
#741 =( NAMED_UNIT ( * ) SI_UNIT ( $, .STERADIAN. ) SOLID_ANGLE_UNIT ( ) );
#742 = DIRECTION ( 'NONE',  ( 1.267059173938971046E-33, -1.000000000000000000, 0.000000000000000000 ) ) ;
#743 = EDGE_LOOP ( 'NONE', ( #616, #455, #921, #92 ) ) ;
#744 = COORDINATED_UNIVERSAL_TIME_OFFSET ( 6, 0, .BEHIND. ) ;
#745 = CIRCLE ( 'NONE', #208, 0.09999999999999939493 ) ;
#746 = CYLINDRICAL_SURFACE ( 'NONE', #1, 9.500000000000000000 ) ;
#747 = VECTOR ( 'NONE', #437, 1000.000000000000000 ) ;
#748 = ORIENTED_EDGE ( 'NONE', *, *, #8, .T. ) ;
#749 = EDGE_CURVE ( 'NONE', #879, #206, #568, .T. ) ;
#750 = FACE_OUTER_BOUND ( 'NONE', #594, .T. ) ;
#751 = CARTESIAN_POINT ( 'NONE',  ( -8.000000000000000000, 1.999999999999994449, 0.000000000000000000 ) ) ;
#752 = VERTEX_POINT ( 'NONE', #64 ) ;
#753 = ADVANCED_FACE ( 'NONE', ( #625 ), #415, .F. ) ;
#754 = CARTESIAN_POINT ( 'NONE',  ( 10.00000000000000000, 6.186838104389115855, 0.000000000000000000 ) ) ;
#755 = AXIS2_PLACEMENT_3D ( 'NONE', #347, #260, #543 ) ;
#756 = DIRECTION ( 'NONE',  ( -1.000000000000000000, 0.000000000000000000, 0.000000000000000000 ) ) ;
#757 = ORIENTED_EDGE ( 'NONE', *, *, #658, .T. ) ;
#758 = AXIS2_PLACEMENT_3D ( 'NONE', #66, #509, #373 ) ;
#759 = DIRECTION ( 'NONE',  ( -1.000000000000000000, 0.000000000000000000, 0.000000000000000000 ) ) ;
#760 = CIRCLE ( 'NONE', #609, 2.000000000000000000 ) ;
#761 = AXIS2_PLACEMENT_3D ( 'NONE', #835, #125, #759 ) ;
#762 = DIRECTION ( 'NONE',  ( -1.267059173938971046E-33, 1.000000000000000000, 0.000000000000000000 ) ) ;
#763 = EDGE_LOOP ( 'NONE', ( #786, #440 ) ) ;
#764 = CARTESIAN_POINT ( 'NONE',  ( -2.010012963072822477E-16, -8.500000000000001776, 0.000000000000000000 ) ) ;
#765 = DIRECTION ( 'NONE',  ( -1.267059173938971046E-33, 1.000000000000000000, 0.000000000000000000 ) ) ;
#766 = ORIENTED_EDGE ( 'NONE', *, *, #767, .F. ) ;
#767 = EDGE_CURVE ( 'NONE', #127, #659, #311, .T. ) ;
#768 = CARTESIAN_POINT ( 'NONE',  ( -2.010012963072822477E-16, -9.500000000000001776, 0.000000000000000000 ) ) ;
#769 = AXIS2_PLACEMENT_3D ( 'NONE', #150, #646, #630 ) ;
#770 = DIRECTION ( 'NONE',  ( -0.9029948743826861079, -0.4296513200708184654, 1.105849782559222823E-16 ) ) ;
#771 = ORIENTED_EDGE ( 'NONE', *, *, #172, .T. ) ;
#772 = ORIENTED_EDGE ( 'NONE', *, *, #852, .F. ) ;
#773 = DIRECTION ( 'NONE',  ( 1.267059173938971046E-33, -1.000000000000000000, -0.000000000000000000 ) ) ;
#774 = AXIS2_PLACEMENT_3D ( 'NONE', #533, #517, #169 ) ;
#775 = DIRECTION ( 'NONE',  ( -1.267059173938971046E-33, 1.000000000000000000, -0.000000000000000000 ) ) ;
#776 = VECTOR ( 'NONE', #840, 999.9999999999998863 ) ;
#777 = ORIENTED_EDGE ( 'NONE', *, *, #691, .T. ) ;
#778 = EDGE_LOOP ( 'NONE', ( #623, #474, #42, #834 ) ) ;
#779 = AXIS2_PLACEMENT_3D ( 'NONE', #144, #427, #562 ) ;
#780 = CARTESIAN_POINT ( 'NONE',  ( -6.500000000000000000, -2.361281839947382277, 0.000000000000000000 ) ) ;
#781 = CARTESIAN_POINT ( 'NONE',  ( -6.500000000000000888, 6.965324646804771369, 7.960204194457796463E-16 ) ) ;
#782 = DIRECTION ( 'NONE',  ( 1.000000000000000000, 0.000000000000000000, 0.000000000000000000 ) ) ;
#783 = DIRECTION ( 'NONE',  ( 1.000000000000000000, 0.000000000000000000, 0.000000000000000000 ) ) ;
#784 = DIRECTION ( 'NONE',  ( 1.000000000000000000, 1.267059173938971046E-33, 0.000000000000000000 ) ) ;
#785 = CIRCLE ( 'NONE', #85, 6.500000000000000888 ) ;
#786 = ORIENTED_EDGE ( 'NONE', *, *, #906, .T. ) ;
#787 = DIRECTION ( 'NONE',  ( 1.000000000000000000, 1.267059173938971046E-33, 0.000000000000000000 ) ) ;
#788 = CYLINDRICAL_SURFACE ( 'NONE', #537, 6.500000000000000888 ) ;
#789 = ADVANCED_FACE ( 'NONE', ( #862 ), #145, .F. ) ;
#790 = AXIS2_PLACEMENT_3D ( 'NONE', #815, #447, #666 ) ;
#791 = EDGE_LOOP ( 'NONE', ( #396, #491, #448, #134 ) ) ;
#792 = CARTESIAN_POINT ( 'NONE',  ( -3.000000000000002665, -9.500000000000005329, 0.000000000000000000 ) ) ;
#793 = DIRECTION ( 'NONE',  ( -1.000000000000000000, 0.000000000000000000, 0.000000000000000000 ) ) ;
#794 = ORIENTED_EDGE ( 'NONE', *, *, #893, .T. ) ;
#795 = PRODUCT_DEFINITION ( 'UNKNOWN', '', #889, #407 ) ;
#796 = CARTESIAN_POINT ( 'NONE',  ( -2.010012963072822724E-16, 6.965324646804771369, 0.000000000000000000 ) ) ;
#797 = AXIS2_PLACEMENT_3D ( 'NONE', #60, #615, #113 ) ;
#798 = FACE_OUTER_BOUND ( 'NONE', #726, .T. ) ;
#799 = EDGE_LOOP ( 'NONE', ( #393, #283 ) ) ;
#800 = APPROVAL_DATE_TIME ( #665, #572 ) ;
#801 = DIRECTION ( 'NONE',  ( 1.267059173938971046E-33, -1.000000000000000000, -0.000000000000000000 ) ) ;
#802 = ORIENTED_EDGE ( 'NONE', *, *, #906, .F. ) ;
#803 = CIRCLE ( 'NONE', #654, 9.942965132007081763 ) ;
#804 = AXIS2_PLACEMENT_3D ( 'NONE', #606, #336, #418 ) ;
#805 = DIRECTION ( 'NONE',  ( 1.000000000000000000, 0.000000000000000000, 0.000000000000000000 ) ) ;
#806 = EDGE_CURVE ( 'NONE', #868, #290, #709, .T. ) ;
#807 = FACE_OUTER_BOUND ( 'NONE', #163, .T. ) ;
#808 = VERTEX_POINT ( 'NONE', #792 ) ;
#809 = CARTESIAN_POINT ( 'NONE',  ( -2.010012963072822724E-16, 6.277137591827385066, 0.000000000000000000 ) ) ;
#810 = PRODUCT_RELATED_PRODUCT_CATEGORY ( 'detail', '', ( #459 ) ) ;
#811 = CC_DESIGN_APPROVAL ( #572, ( #795 ) ) ;
#812 = ORIENTED_EDGE ( 'NONE', *, *, #640, .F. ) ;
#813 = AXIS2_PLACEMENT_3D ( 'NONE', #885, #94, #456 ) ;
#814 = DIRECTION ( 'NONE',  ( -1.224646799147353207E-16, -1.551699961694650428E-49, 1.000000000000000000 ) ) ;
#815 = CARTESIAN_POINT ( 'NONE',  ( -2.010012963072822477E-16, -0.5000000000000038858, 0.000000000000000000 ) ) ;
#816 = EDGE_LOOP ( 'NONE', ( #13, #662, #329, #359 ) ) ;
#817 = EDGE_CURVE ( 'NONE', #850, #829, #281, .T. ) ;
#818 = AXIS2_PLACEMENT_3D ( 'NONE', #453, #528, #160 ) ;
#819 = CIRCLE ( 'NONE', #804, 0.09999999999999939493 ) ;
#820 = CARTESIAN_POINT ( 'NONE',  ( 3.000000000000002665, 9.499999999999998224, 3.673940397442062826E-16 ) ) ;
#821 = AXIS2_PLACEMENT_3D ( 'NONE', #294, #576, #627 ) ;
#822 = PERSON_AND_ORGANIZATION ( #895, #54 ) ;
#823 = ORIENTED_EDGE ( 'NONE', *, *, #8, .F. ) ;
#824 = ORIENTED_EDGE ( 'NONE', *, *, #65, .F. ) ;
#825 = ADVANCED_FACE ( 'NONE', ( #70 ), #434, .T. ) ;
#826 = DIRECTION ( 'NONE',  ( 1.224646799147353207E-16, 1.551699961694650428E-49, 1.000000000000000000 ) ) ;
#827 = CARTESIAN_POINT ( 'NONE',  ( 10.00000000000000000, 2.099999999999994316, 0.000000000000000000 ) ) ;
#828 = AXIS2_PLACEMENT_3D ( 'NONE', #559, #618, #484 ) ;
#829 = VERTEX_POINT ( 'NONE', #847 ) ;
#830 = VECTOR ( 'NONE', #443, 1000.000000000000000 ) ;
#831 = EDGE_CURVE ( 'NONE', #123, #503, #275, .T. ) ;
#832 = CARTESIAN_POINT ( 'NONE',  ( 9.500000000000000000, -0.5000000000000038858, 1.163414459189985485E-15 ) ) ;
#833 = CARTESIAN_POINT ( 'NONE',  ( 8.000000000000000000, 0.9999999999999940048, 0.000000000000000000 ) ) ;
#834 = ORIENTED_EDGE ( 'NONE', *, *, #831, .F. ) ;
#835 = CARTESIAN_POINT ( 'NONE',  ( -2.010012963072822724E-16, 8.549999999999998934, 0.000000000000000000 ) ) ;
#836 = EDGE_CURVE ( 'NONE', #167, #628, #636, .T. ) ;
#837 = CARTESIAN_POINT ( 'NONE',  ( -3.169499999999995321, 8.549999999999998934, 3.881518029897530292E-16 ) ) ;
#838 = AXIS2_PLACEMENT_3D ( 'NONE', #702, #203, #139 ) ;
#839 = VERTEX_POINT ( 'NONE', #428 ) ;
#840 = DIRECTION ( 'NONE',  ( 0.5452385996171413840, 0.8382809013019076883, 6.677247057927175201E-17 ) ) ;
#841 = DIRECTION ( 'NONE',  ( -1.267059173938971046E-33, 1.000000000000000000, -0.000000000000000000 ) ) ;
#842 = ORIENTED_EDGE ( 'NONE', *, *, #734, .F. ) ;
#843 = LOCAL_TIME ( 9, 35, 51.00000000000000000, #520 ) ;
#844 = FACE_OUTER_BOUND ( 'NONE', #924, .T. ) ;
#845 = CARTESIAN_POINT ( 'NONE',  ( -2.717947212491627074, 9.499999999999996447, 3.854696467903506343E-16 ) ) ;
#846 = ORIENTED_EDGE ( 'NONE', *, *, #529, .T. ) ;
#847 = CARTESIAN_POINT ( 'NONE',  ( -6.500000000000000000, -2.361281839947382277, 0.000000000000000000 ) ) ;
#848 = CARTESIAN_POINT ( 'NONE',  ( 10.00000000000000000, -9.500000000000001776, 0.000000000000000000 ) ) ;
#849 = AXIS2_PLACEMENT_3D ( 'NONE', #724, #5, #9 ) ;
#850 = VERTEX_POINT ( 'NONE', #853 ) ;
#851 = FACE_OUTER_BOUND ( 'NONE', #106, .T. ) ;
#852 = EDGE_CURVE ( 'NONE', #284, #200, #291, .T. ) ;
#853 = CARTESIAN_POINT ( 'NONE',  ( -3.000000000000003109, -7.742381337702813227, 0.000000000000000000 ) ) ;
#854 = DIRECTION ( 'NONE',  ( 1.267059173938971046E-33, -1.000000000000000000, -0.000000000000000000 ) ) ;
#855 = DIRECTION ( 'NONE',  ( 1.000000000000000000, 1.267059173938971046E-33, 0.000000000000000000 ) ) ;
#856 = CARTESIAN_POINT ( 'NONE',  ( -2.010012963072822724E-16, 6.186838104389115855, 0.000000000000000000 ) ) ;
#857 = EDGE_CURVE ( 'NONE', #181, #653, #693, .T. ) ;
#858 = AXIS2_PLACEMENT_3D ( 'NONE', #244, #814, #582 ) ;
#859 = FACE_OUTER_BOUND ( 'NONE', #701, .T. ) ;
#860 = DIRECTION ( 'NONE',  ( 1.267059173938971046E-33, -1.000000000000000000, -0.000000000000000000 ) ) ;
#861 = DATE_AND_TIME ( #254, #446 ) ;
#862 = FACE_OUTER_BOUND ( 'NONE', #265, .T. ) ;
#863 = CIRCLE ( 'NONE', #622, 10.00000000000000000 ) ;
#864 = DIRECTION ( 'NONE',  ( -0.000000000000000000, 0.000000000000000000, -1.000000000000000000 ) ) ;
#865 = EDGE_CURVE ( 'NONE', #612, #894, #547, .T. ) ;
#866 = VECTOR ( 'NONE', #775, 1000.000000000000000 ) ;
#867 = AXIS2_PLACEMENT_3D ( 'NONE', #584, #564, #211 ) ;
#868 = VERTEX_POINT ( 'NONE', #21 ) ;
#869 = CIRCLE ( 'NONE', #61, 1.834059438752476012 ) ;
#870 = FACE_OUTER_BOUND ( 'NONE', #156, .T. ) ;
#871 = DIRECTION ( 'NONE',  ( 1.267059173938971046E-33, -1.000000000000000000, -0.000000000000000000 ) ) ;
#872 = ORIENTED_EDGE ( 'NONE', *, *, #257, .F. ) ;
#873 = CARTESIAN_POINT ( 'NONE',  ( -9.900000000000000355, 1.999999999999994449, 0.000000000000000000 ) ) ;
#874 = DIRECTION ( 'NONE',  ( 1.000000000000000000, 0.000000000000000000, -1.224646799147353207E-16 ) ) ;
#875 = ORIENTED_EDGE ( 'NONE', *, *, #658, .F. ) ;
#876 = CC_DESIGN_PERSON_AND_ORGANIZATION_ASSIGNMENT ( #305, #587, ( #459 ) ) ;
#877 = PERSON_AND_ORGANIZATION ( #895, #54 ) ;
#878 = CARTESIAN_POINT ( 'NONE',  ( -2.010012963072822477E-16, -0.5000000000000038858, 0.000000000000000000 ) ) ;
#879 = VERTEX_POINT ( 'NONE', #873 ) ;
#880 = TOROIDAL_SURFACE ( 'NONE', #75, 4.000000000000000000, 0.2499999999999995837 ) ;
#881 = AXIS2_PLACEMENT_3D ( 'NONE', #340, #617, #271 ) ;
#882 = FACE_OUTER_BOUND ( 'NONE', #635, .T. ) ;
#883 = APPROVAL_DATE_TIME ( #861, #245 ) ;
#884 = ORIENTED_EDGE ( 'NONE', *, *, #806, .T. ) ;
#885 = CARTESIAN_POINT ( 'NONE',  ( -2.010012963072822724E-16, 6.186838104389115855, 0.000000000000000000 ) ) ;
#886 = CARTESIAN_POINT ( 'NONE',  ( -2.010012963072822477E-16, -7.742381337702813227, 0.000000000000000000 ) ) ;
#887 = EDGE_CURVE ( 'NONE', #839, #222, #168, .T. ) ;
#888 = PERSON_AND_ORGANIZATION_ROLE ( 'creator' ) ;
#889 = PRODUCT_DEFINITION_FORMATION_WITH_SPECIFIED_SOURCE ( 'ANY', '', #459, .NOT_KNOWN. ) ;
#890 = ORIENTED_EDGE ( 'NONE', *, *, #626, .T. ) ;
#891 = DIRECTION ( 'NONE',  ( -1.267059173938971046E-33, 1.000000000000000000, 0.000000000000000000 ) ) ;
#892 = PERSON_AND_ORGANIZATION_ROLE ( 'classification_officer' ) ;
#893 = EDGE_CURVE ( 'NONE', #612, #706, #296, .T. ) ;
#894 = VERTEX_POINT ( 'NONE', #154 ) ;
#895 = PERSON ( 'UNSPECIFIED', 'UNSPECIFIED', 'UNSPECIFIED', ('UNSPECIFIED'), ('UNSPECIFIED'), ('UNSPECIFIED') ) ;
#896 = CIRCLE ( 'NONE', #684, 9.500000000000000000 ) ;
#897 = CIRCLE ( 'NONE', #849, 3.577249852633265892 ) ;
#898 = DIRECTION ( 'NONE',  ( 1.000000000000000000, 0.000000000000000000, 0.000000000000000000 ) ) ;
#899 = CARTESIAN_POINT ( 'NONE',  ( 9.900000000000000355, 1.999999999999994449, 1.218523565151616381E-15 ) ) ;
#900 = ORIENTED_EDGE ( 'NONE', *, *, #602, .T. ) ;
#901 = EDGE_CURVE ( 'NONE', #222, #549, #249, .T. ) ;
#902 = DIRECTION ( 'NONE',  ( -1.000000000000000000, -1.267059173938971046E-33, 0.000000000000000000 ) ) ;
#903 = CARTESIAN_POINT ( 'NONE',  ( -4.000000000000000000, -9.500000000000003553, 0.000000000000000000 ) ) ;
#904 = ORIENTED_EDGE ( 'NONE', *, *, #442, .F. ) ;
#905 =( GEOMETRIC_REPRESENTATION_CONTEXT ( 3 ) GLOBAL_UNCERTAINTY_ASSIGNED_CONTEXT ( ( #721 ) ) GLOBAL_UNIT_ASSIGNED_CONTEXT ( ( #164, #387, #741 ) ) REPRESENTATION_CONTEXT ( 'NONE', 'WORKASPACE' ) );
#906 = EDGE_CURVE ( 'NONE', #200, #628, #140, .T. ) ;
#907 = CARTESIAN_POINT ( 'NONE',  ( -2.010012963072822724E-16, 0.9999999999999940048, 0.000000000000000000 ) ) ;
#908 = FACE_BOUND ( 'NONE', #196, .T. ) ;
#909 = ORIENTED_EDGE ( 'NONE', *, *, #749, .F. ) ;
#910 = DIRECTION ( 'NONE',  ( 1.267059173938971046E-33, -1.000000000000000000, -0.000000000000000000 ) ) ;
#911 = AXIS2_PLACEMENT_3D ( 'NONE', #95, #457, #661 ) ;
#912 = FACE_BOUND ( 'NONE', #763, .T. ) ;
#913 = ORIENTED_EDGE ( 'NONE', *, *, #103, .F. ) ;
#914 = CARTESIAN_POINT ( 'NONE',  ( -2.010012963072822477E-16, -9.500000000000001776, 0.000000000000000000 ) ) ;
#915 = PLANE ( 'NONE',  #328 ) ;
#916 = ADVANCED_FACE ( 'NONE', ( #870 ), #231, .T. ) ;
#917 = ORIENTED_EDGE ( 'NONE', *, *, #901, .T. ) ;
#918 = ORIENTED_EDGE ( 'NONE', *, *, #556, .F. ) ;
#919 = CARTESIAN_POINT ( 'NONE',  ( -2.010012963072822724E-16, 9.499999999999998224, 0.000000000000000000 ) ) ;
#920 = DIRECTION ( 'NONE',  ( 1.267059173938971046E-33, -1.000000000000000000, -0.000000000000000000 ) ) ;
#921 = ORIENTED_EDGE ( 'NONE', *, *, #922, .F. ) ;
#922 = EDGE_CURVE ( 'NONE', #549, #334, #532, .T. ) ;
#923 = ORIENTED_EDGE ( 'NONE', *, *, #836, .T. ) ;
#924 = EDGE_LOOP ( 'NONE', ( #405, #358, #292, #322 ) ) ;
#925 = DIRECTION ( 'NONE',  ( 1.267059173938971046E-33, -1.000000000000000000, -0.000000000000000000 ) ) ;
ENDSEC;
END-ISO-10303-21;
