ISO-10303-21;
HEADER;
FILE_DESCRIPTION (( 'STEP AP203' ),
    '1' );
FILE_NAME ('8785N395_Water- and Steam-Resistant EPDM O-Rings.STEP',
    '2026-03-13T16:02:11',
    ( 'McMaster Carr Supply' ),
    ( 'McMaster Carr Supply' ),
    'SwSTEP 2.0',
    'SolidWorks 2024',
    '' );
FILE_SCHEMA (( 'CONFIG_CONTROL_DESIGN' ));
ENDSEC;

DATA;
#1 = PERSON_AND_ORGANIZATION ( #48, #100 ) ;
#2 = CC_DESIGN_DATE_AND_TIME_ASSIGNMENT ( #13, #75, ( #144 ) ) ;
#3 = COORDINATED_UNIVERSAL_TIME_OFFSET ( 6, 0, .BEHIND. ) ;
#4 = ORIENTED_EDGE ( 'NONE', *, *, #106, .T. ) ;
#5 = ORIENTED_EDGE ( 'NONE', *, *, #106, .F. ) ;
#6 = ORIENTED_EDGE ( 'NONE', *, *, #183, .T. ) ;
#7 = EDGE_LOOP ( 'NONE', ( #34, #52, #54, #21 ) ) ;
#8 = ADVANCED_FACE ( 'NONE', ( #112 ), #157, .T. ) ;
#9 = CARTESIAN_POINT ( 'NONE',  ( 0.000000000000000000, 0.000000000000000000, -8.673617379884035472E-16 ) ) ;
#10 = APPLICATION_PROTOCOL_DEFINITION ( 'international standard', 'config_control_design', 1994, #57 ) ;
#11 = AXIS2_PLACEMENT_3D ( 'NONE', #118, #41, #23 ) ;
#12 = DIRECTION ( 'NONE',  ( -1.000000000000000000, 1.224646799147353207E-16, 0.000000000000000000 ) ) ;
#13 = DATE_AND_TIME ( #108, #165 ) ;
#14 = PERSON_AND_ORGANIZATION ( #48, #100 ) ;
#15 = EDGE_CURVE ( 'NONE', #85, #113, #83, .T. ) ;
#16 = PERSON_AND_ORGANIZATION ( #48, #100 ) ;
#17 = ORIENTED_EDGE ( 'NONE', *, *, #183, .F. ) ;
#18 = AXIS2_PLACEMENT_3D ( 'NONE', #192, #25, #142 ) ;
#19 = ADVANCED_BREP_SHAPE_REPRESENTATION ( '8785N395_Water- and Steam-Resistant EPDM O-Rings', ( #164, #11 ), #70 ) ;
#20 = DIRECTION ( 'NONE',  ( 1.000000000000000000, 0.000000000000000000, -1.836970198721029934E-16 ) ) ;
#21 = ORIENTED_EDGE ( 'NONE', *, *, #53, .F. ) ;
#22 = PRODUCT_DEFINITION_FORMATION_WITH_SPECIFIED_SOURCE ( 'ANY', '', #109, .NOT_KNOWN. ) ;
#23 = DIRECTION ( 'NONE',  ( 1.000000000000000000, 0.000000000000000000, 0.000000000000000000 ) ) ;
#24 = FACE_OUTER_BOUND ( 'NONE', #97, .T. ) ;
#25 = DIRECTION ( 'NONE',  ( 1.836970198721029934E-16, -0.000000000000000000, 1.000000000000000000 ) ) ;
#26 = LOCAL_TIME ( 11, 2, 11.00000000000000000, #3 ) ;
#27 = AXIS2_PLACEMENT_3D ( 'NONE', #9, #62, #89 ) ;
#28 = CC_DESIGN_PERSON_AND_ORGANIZATION_ASSIGNMENT ( #42, #73, ( #109 ) ) ;
#29 = COORDINATED_UNIVERSAL_TIME_OFFSET ( 6, 0, .BEHIND. ) ;
#30 = DATE_AND_TIME ( #49, #180 ) ;
#31 = CALENDAR_DATE ( 2026, 13, 3 ) ;
#32 = CALENDAR_DATE ( 2026, 13, 3 ) ;
#33 = AXIS2_PLACEMENT_3D ( 'NONE', #37, #122, #84 ) ;
#34 = ORIENTED_EDGE ( 'NONE', *, *, #185, .F. ) ;
#35 = CC_DESIGN_PERSON_AND_ORGANIZATION_ASSIGNMENT ( #93, #151, ( #22 ) ) ;
#36 = LOCAL_TIME ( 11, 2, 11.00000000000000000, #50 ) ;
#37 = CARTESIAN_POINT ( 'NONE',  ( 4.750000000000000888, 0.000000000000000000, -1.739922582380893056E-15 ) ) ;
#38 = EDGE_LOOP ( 'NONE', ( #123, #5, #115, #141 ) ) ;
#39 = ORIENTED_EDGE ( 'NONE', *, *, #15, .F. ) ;
#40 = APPROVAL_PERSON_ORGANIZATION ( #14, #160, #168 ) ;
#41 = DIRECTION ( 'NONE',  ( 0.000000000000000000, 0.000000000000000000, 1.000000000000000000 ) ) ;
#42 = PERSON_AND_ORGANIZATION ( #48, #100 ) ;
#43 = CC_DESIGN_PERSON_AND_ORGANIZATION_ASSIGNMENT ( #67, #135, ( #144 ) ) ;
#44 = DIRECTION ( 'NONE',  ( 1.000000000000000000, 0.000000000000000000, -1.836970198721029934E-16 ) ) ;
#45 = TOROIDAL_SURFACE ( 'NONE', #111, 4.750000000000000888, 1.000000000000001554 ) ;
#46 = DIRECTION ( 'NONE',  ( 1.836970198721029934E-16, -0.000000000000000000, 1.000000000000000000 ) ) ;
#47 = CIRCLE ( 'NONE', #177, 3.749999999999999112 ) ;
#48 = PERSON ( 'UNSPECIFIED', 'UNSPECIFIED', 'UNSPECIFIED', ('UNSPECIFIED'), ('UNSPECIFIED'), ('UNSPECIFIED') ) ;
#49 = CALENDAR_DATE ( 2026, 13, 3 ) ;
#50 = COORDINATED_UNIVERSAL_TIME_OFFSET ( 6, 0, .BEHIND. ) ;
#51 = ADVANCED_FACE ( 'NONE', ( #140 ), #170, .T. ) ;
#52 = ORIENTED_EDGE ( 'NONE', *, *, #88, .T. ) ;
#53 = EDGE_CURVE ( 'NONE', #68, #113, #47, .T. ) ;
#54 = ORIENTED_EDGE ( 'NONE', *, *, #15, .T. ) ;
#55 = CARTESIAN_POINT ( 'NONE',  ( 0.000000000000000000, 0.000000000000000000, -8.673617379884035472E-16 ) ) ;
#56 = ORIENTED_EDGE ( 'NONE', *, *, #120, .F. ) ;
#57 = APPLICATION_CONTEXT ( 'configuration controlled 3d designs of mechanical parts and assemblies' ) ;
#58 =( NAMED_UNIT ( * ) SI_UNIT ( $, .STERADIAN. ) SOLID_ANGLE_UNIT ( ) );
#59 = APPROVAL_PERSON_ORGANIZATION ( #16, #77, #152 ) ;
#60 = APPLICATION_PROTOCOL_DEFINITION ( 'international standard', 'config_control_design', 1994, #145 ) ;
#61 = AXIS2_PLACEMENT_3D ( 'NONE', #147, #143, #119 ) ;
#62 = DIRECTION ( 'NONE',  ( 1.836970198721029934E-16, -0.000000000000000000, 1.000000000000000000 ) ) ;
#63 = DIRECTION ( 'NONE',  ( 1.836970198721029934E-16, -0.000000000000000000, 1.000000000000000000 ) ) ;
#64 = CARTESIAN_POINT ( 'NONE',  ( 3.749999999999999112, 0.000000000000000000, -9.898264179031390898E-16 ) ) ;
#65 = AXIS2_PLACEMENT_3D ( 'NONE', #74, #175, #131 ) ;
#66 = SHAPE_DEFINITION_REPRESENTATION ( #81, #19 ) ;
#67 = PERSON_AND_ORGANIZATION ( #48, #100 ) ;
#68 = VERTEX_POINT ( 'NONE', #127 ) ;
#69 = AXIS2_PLACEMENT_3D ( 'NONE', #98, #158, #20 ) ;
#70 =( GEOMETRIC_REPRESENTATION_CONTEXT ( 3 ) GLOBAL_UNCERTAINTY_ASSIGNED_CONTEXT ( ( #186 ) ) GLOBAL_UNIT_ASSIGNED_CONTEXT ( ( #104, #150, #58 ) ) REPRESENTATION_CONTEXT ( 'NONE', 'WORKASPACE' ) );
#71 = DIRECTION ( 'NONE',  ( 0.000000000000000000, 0.000000000000000000, -1.000000000000000000 ) ) ;
#72 = PRODUCT_DEFINITION ( 'UNKNOWN', '', #22, #87 ) ;
#73 = PERSON_AND_ORGANIZATION_ROLE ( 'design_owner' ) ;
#74 = CARTESIAN_POINT ( 'NONE',  ( -2.249639673992790243E-32, 0.000000000000000000, -9.898264179031388926E-16 ) ) ;
#75 = DATE_TIME_ROLE ( 'classification_date' ) ;
#76 = COORDINATED_UNIVERSAL_TIME_OFFSET ( 6, 0, .BEHIND. ) ;
#77 = APPROVAL ( #107, 'UNSPECIFIED' ) ;
#78 = CC_DESIGN_SECURITY_CLASSIFICATION ( #144, ( #22 ) ) ;
#79 = AXIS2_PLACEMENT_3D ( 'NONE', #103, #162, #99 ) ;
#80 = SECURITY_CLASSIFICATION_LEVEL ( 'unclassified' ) ;
#81 = PRODUCT_DEFINITION_SHAPE ( 'NONE', 'NONE',  #72 ) ;
#82 = VERTEX_POINT ( 'NONE', #91 ) ;
#83 = CIRCLE ( 'NONE', #33, 1.000000000000001554 ) ;
#84 = DIRECTION ( 'NONE',  ( 0.000000000000000000, 0.000000000000000000, -1.000000000000000000 ) ) ;
#85 = VERTEX_POINT ( 'NONE', #161 ) ;
#86 = TOROIDAL_SURFACE ( 'NONE', #18, 4.750000000000000888, 1.000000000000001554 ) ;
#87 = DESIGN_CONTEXT ( 'detailed design', #57, 'design' ) ;
#88 = EDGE_CURVE ( 'NONE', #82, #85, #182, .T. ) ;
#89 = DIRECTION ( 'NONE',  ( 1.000000000000000000, 0.000000000000000000, -1.836970198721030181E-16 ) ) ;
#90 = AXIS2_PLACEMENT_3D ( 'NONE', #55, #63, #44 ) ;
#91 = CARTESIAN_POINT ( 'NONE',  ( -5.750000000000002665, 7.041719095097282852E-16, 1.888961262761891024E-16 ) ) ;
#92 = APPROVAL_DATE_TIME ( #132, #160 ) ;
#93 = PERSON_AND_ORGANIZATION ( #48, #100 ) ;
#94 = CC_DESIGN_PERSON_AND_ORGANIZATION_ASSIGNMENT ( #96, #181, ( #22 ) ) ;
#95 = CIRCLE ( 'NONE', #126, 1.000000000000001776 ) ;
#96 = PERSON_AND_ORGANIZATION ( #48, #100 ) ;
#97 = EDGE_LOOP ( 'NONE', ( #39, #6, #136, #56 ) ) ;
#98 = CARTESIAN_POINT ( 'NONE',  ( 0.000000000000000000, 0.000000000000000000, -8.673617379884035472E-16 ) ) ;
#99 = DIRECTION ( 'NONE',  ( 1.000000000000000000, 0.000000000000000000, -1.836970198721030181E-16 ) ) ;
#100 = ORGANIZATION ( 'UNSPECIFIED', 'UNSPECIFIED', '' ) ;
#101 = CARTESIAN_POINT ( 'NONE',  ( 4.750000000000000888, 0.000000000000000000, -1.739922582380893056E-15 ) ) ;
#102 = CARTESIAN_POINT ( 'NONE',  ( 0.000000000000000000, 0.000000000000000000, -8.673617379884035472E-16 ) ) ;
#103 = CARTESIAN_POINT ( 'NONE',  ( 0.000000000000000000, 0.000000000000000000, -8.673617379884035472E-16 ) ) ;
#104 =( LENGTH_UNIT ( ) NAMED_UNIT ( * ) SI_UNIT ( .MILLI., .METRE. ) );
#105 = COORDINATED_UNIVERSAL_TIME_OFFSET ( 6, 0, .BEHIND. ) ;
#106 = EDGE_CURVE ( 'NONE', #68, #82, #95, .T. ) ;
#107 = APPROVAL_STATUS ( 'not_yet_approved' ) ;
#108 = CALENDAR_DATE ( 2026, 13, 3 ) ;
#109 = PRODUCT ( '8785N395_Water- and Steam-Resistant EPDM O-Rings', '8785N395_Water- and Steam-Resistant EPDM O-Rings', '', ( #129 ) ) ;
#110 = DATE_AND_TIME ( #193, #117 ) ;
#111 = AXIS2_PLACEMENT_3D ( 'NONE', #102, #189, #116 ) ;
#112 = FACE_OUTER_BOUND ( 'NONE', #7, .T. ) ;
#113 = VERTEX_POINT ( 'NONE', #64 ) ;
#114 = ADVANCED_FACE ( 'NONE', ( #191 ), #45, .T. ) ;
#115 = ORIENTED_EDGE ( 'NONE', *, *, #53, .T. ) ;
#116 = DIRECTION ( 'NONE',  ( 1.000000000000000000, 0.000000000000000000, -1.836970198721029934E-16 ) ) ;
#117 = LOCAL_TIME ( 11, 2, 11.00000000000000000, #76 ) ;
#118 = CARTESIAN_POINT ( 'NONE',  ( 0.000000000000000000, 0.000000000000000000, 0.000000000000000000 ) ) ;
#119 = DIRECTION ( 'NONE',  ( -1.000000000000000000, 1.224646799147353207E-16, 0.000000000000000000 ) ) ;
#120 = EDGE_CURVE ( 'NONE', #113, #68, #155, .T. ) ;
#121 = APPROVAL_STATUS ( 'not_yet_approved' ) ;
#122 = DIRECTION ( 'NONE',  ( 0.000000000000000000, -1.000000000000000000, -0.000000000000000000 ) ) ;
#123 = ORIENTED_EDGE ( 'NONE', *, *, #88, .F. ) ;
#124 = PRODUCT_RELATED_PRODUCT_CATEGORY ( 'detail', '', ( #109 ) ) ;
#125 = EDGE_LOOP ( 'NONE', ( #17, #171, #187, #4 ) ) ;
#126 = AXIS2_PLACEMENT_3D ( 'NONE', #172, #149, #12 ) ;
#127 = CARTESIAN_POINT ( 'NONE',  ( -3.749999999999999112, 4.592425496802572986E-16, -9.898264179031386954E-16 ) ) ;
#128 = CIRCLE ( 'NONE', #167, 1.000000000000001554 ) ;
#129 = MECHANICAL_CONTEXT ( 'NONE', #145, 'mechanical' ) ;
#130 = PERSON_AND_ORGANIZATION ( #48, #100 ) ;
#131 = DIRECTION ( 'NONE',  ( 1.000000000000000000, 0.000000000000000000, -1.836970198721029688E-16 ) ) ;
#132 = DATE_AND_TIME ( #31, #26 ) ;
#133 = PERSON_AND_ORGANIZATION_ROLE ( 'creator' ) ;
#134 = APPROVAL_PERSON_ORGANIZATION ( #130, #176, #166 ) ;
#135 = PERSON_AND_ORGANIZATION_ROLE ( 'classification_officer' ) ;
#136 = ORIENTED_EDGE ( 'NONE', *, *, #185, .T. ) ;
#137 = CC_DESIGN_APPROVAL ( #160, ( #144 ) ) ;
#138 = CIRCLE ( 'NONE', #61, 1.000000000000001776 ) ;
#139 = CC_DESIGN_PERSON_AND_ORGANIZATION_ASSIGNMENT ( #1, #133, ( #72 ) ) ;
#140 = FACE_OUTER_BOUND ( 'NONE', #125, .T. ) ;
#141 = ORIENTED_EDGE ( 'NONE', *, *, #190, .T. ) ;
#142 = DIRECTION ( 'NONE',  ( 1.000000000000000000, 0.000000000000000000, -1.836970198721029934E-16 ) ) ;
#143 = DIRECTION ( 'NONE',  ( 1.224646799147353207E-16, 1.000000000000000000, -2.249639673992786685E-32 ) ) ;
#144 = SECURITY_CLASSIFICATION ( '', '', #80 ) ;
#145 = APPLICATION_CONTEXT ( 'configuration controlled 3d designs of mechanical parts and assemblies' ) ;
#146 = CLOSED_SHELL ( 'NONE', ( #8, #156, #51, #114 ) ) ;
#147 = CARTESIAN_POINT ( 'NONE',  ( -4.750000000000000888, 5.817072295949928412E-16, 5.199106404085799335E-18 ) ) ;
#148 = CC_DESIGN_DATE_AND_TIME_ASSIGNMENT ( #110, #179, ( #72 ) ) ;
#149 = DIRECTION ( 'NONE',  ( 1.224646799147353207E-16, 1.000000000000000000, -2.249639673992786685E-32 ) ) ;
#150 =( NAMED_UNIT ( * ) PLANE_ANGLE_UNIT ( ) SI_UNIT ( $, .RADIAN. ) );
#151 = PERSON_AND_ORGANIZATION_ROLE ( 'creator' ) ;
#152 = APPROVAL_ROLE ( '' ) ;
#153 = APPROVAL_STATUS ( 'not_yet_approved' ) ;
#154 = CC_DESIGN_APPROVAL ( #77, ( #22 ) ) ;
#155 = CIRCLE ( 'NONE', #65, 3.749999999999999112 ) ;
#156 = ADVANCED_FACE ( 'NONE', ( #24 ), #86, .T. ) ;
#157 = TOROIDAL_SURFACE ( 'NONE', #69, 4.750000000000000888, 1.000000000000001554 ) ;
#158 = DIRECTION ( 'NONE',  ( 1.836970198721029934E-16, -0.000000000000000000, 1.000000000000000000 ) ) ;
#159 = DIRECTION ( 'NONE',  ( 1.000000000000000000, 0.000000000000000000, -1.836970198721029688E-16 ) ) ;
#160 = APPROVAL ( #121, 'UNSPECIFIED' ) ;
#161 = CARTESIAN_POINT ( 'NONE',  ( 5.750000000000002665, 0.000000000000000000, -1.923619602252996567E-15 ) ) ;
#162 = DIRECTION ( 'NONE',  ( 1.836970198721029934E-16, -0.000000000000000000, 1.000000000000000000 ) ) ;
#163 = APPROVAL_DATE_TIME ( #184, #176 ) ;
#164 = MANIFOLD_SOLID_BREP ( 'Revolve1', #146 ) ;
#165 = LOCAL_TIME ( 11, 2, 11.00000000000000000, #105 ) ;
#166 = APPROVAL_ROLE ( '' ) ;
#167 = AXIS2_PLACEMENT_3D ( 'NONE', #101, #178, #71 ) ;
#168 = APPROVAL_ROLE ( '' ) ;
#169 = APPROVAL_DATE_TIME ( #30, #77 ) ;
#170 = TOROIDAL_SURFACE ( 'NONE', #90, 4.750000000000000888, 1.000000000000001554 ) ;
#171 = ORIENTED_EDGE ( 'NONE', *, *, #190, .F. ) ;
#172 = CARTESIAN_POINT ( 'NONE',  ( -4.750000000000000888, 5.817072295949928412E-16, 5.199106404085799335E-18 ) ) ;
#173 = CC_DESIGN_APPROVAL ( #176, ( #72 ) ) ;
#174 = CIRCLE ( 'NONE', #27, 5.750000000000002665 ) ;
#175 = DIRECTION ( 'NONE',  ( 1.836970198721029934E-16, -0.000000000000000000, 1.000000000000000000 ) ) ;
#176 = APPROVAL ( #153, 'UNSPECIFIED' ) ;
#177 = AXIS2_PLACEMENT_3D ( 'NONE', #188, #46, #159 ) ;
#178 = DIRECTION ( 'NONE',  ( 0.000000000000000000, -1.000000000000000000, -0.000000000000000000 ) ) ;
#179 = DATE_TIME_ROLE ( 'creation_date' ) ;
#180 = LOCAL_TIME ( 11, 2, 11.00000000000000000, #29 ) ;
#181 = PERSON_AND_ORGANIZATION_ROLE ( 'design_supplier' ) ;
#182 = CIRCLE ( 'NONE', #79, 5.750000000000002665 ) ;
#183 = EDGE_CURVE ( 'NONE', #85, #82, #174, .T. ) ;
#184 = DATE_AND_TIME ( #32, #36 ) ;
#185 = EDGE_CURVE ( 'NONE', #82, #68, #138, .T. ) ;
#186 = UNCERTAINTY_MEASURE_WITH_UNIT (LENGTH_MEASURE( 1.000000000000000082E-05 ), #104, 'distance_accuracy_value', 'NONE');
#187 = ORIENTED_EDGE ( 'NONE', *, *, #120, .T. ) ;
#188 = CARTESIAN_POINT ( 'NONE',  ( -2.249639673992790243E-32, 0.000000000000000000, -9.898264179031388926E-16 ) ) ;
#189 = DIRECTION ( 'NONE',  ( 1.836970198721029934E-16, -0.000000000000000000, 1.000000000000000000 ) ) ;
#190 = EDGE_CURVE ( 'NONE', #113, #85, #128, .T. ) ;
#191 = FACE_OUTER_BOUND ( 'NONE', #38, .T. ) ;
#192 = CARTESIAN_POINT ( 'NONE',  ( 0.000000000000000000, 0.000000000000000000, -8.673617379884035472E-16 ) ) ;
#193 = CALENDAR_DATE ( 2026, 13, 3 ) ;
ENDSEC;
END-ISO-10303-21;
